solid OpenSCAD_Model
  facet normal 1 0 0
    outer loop
      vertex 127.5 58 106
      vertex 127.5 52 92
      vertex 127.5 58 92
    endloop
  endfacet
  facet normal 1 0 0
    outer loop
      vertex 127.5 52 92
      vertex 127.5 6 92
      vertex 127.5 52 91.6
    endloop
  endfacet
  facet normal 1 0 0
    outer loop
      vertex 127.5 58 106
      vertex 127.5 6 92
      vertex 127.5 52 92
    endloop
  endfacet
  facet normal 1 -0 0
    outer loop
      vertex 127.5 0 106
      vertex 127.5 6 92
      vertex 127.5 58 106
    endloop
  endfacet
  facet normal 1 0 0
    outer loop
      vertex 127.5 6 92
      vertex 127.5 0 106
      vertex 127.5 0 92
    endloop
  endfacet
  facet normal 1 0 0
    outer loop
      vertex 127.5 52 91.6
      vertex 127.5 6 92
      vertex 127.5 6 91.6
    endloop
  endfacet
  facet normal -0 0 1
    outer loop
      vertex 17.5 58 106
      vertex 21.5 0 106
      vertex 21.5 58 106
    endloop
  endfacet
  facet normal 0 0 1
    outer loop
      vertex 21.5 0 106
      vertex 17.5 58 106
      vertex 17.5 0 106
    endloop
  endfacet
  facet normal -0 0 1
    outer loop
      vertex 123.5 58 106
      vertex 127.5 0 106
      vertex 127.5 58 106
    endloop
  endfacet
  facet normal 0 0 1
    outer loop
      vertex 127.5 0 106
      vertex 123.5 58 106
      vertex 123.5 0 106
    endloop
  endfacet
  facet normal 0 0 -1
    outer loop
      vertex 69.5 6 91.6
      vertex 52.75 29 91.6
      vertex 69.5 52 91.6
    endloop
  endfacet
  facet normal 0 0 -1
    outer loop
      vertex 69.5 6 91.6
      vertex 52.7308 28.7063 91.6
      vertex 52.75 29 91.6
    endloop
  endfacet
  facet normal 0 0 -1
    outer loop
      vertex 69.5 6 91.6
      vertex 52.6733 28.4177 91.6
      vertex 52.7308 28.7063 91.6
    endloop
  endfacet
  facet normal 0 0 -1
    outer loop
      vertex 69.5 6 91.6
      vertex 52.5787 28.139 91.6
      vertex 52.6733 28.4177 91.6
    endloop
  endfacet
  facet normal 0 0 -1
    outer loop
      vertex 69.5 6 91.6
      vertex 52.4486 27.875 91.6
      vertex 52.5787 28.139 91.6
    endloop
  endfacet
  facet normal 0 0 -1
    outer loop
      vertex 69.5 6 91.6
      vertex 52.285 27.6303 91.6
      vertex 52.4486 27.875 91.6
    endloop
  endfacet
  facet normal 0 0 -1
    outer loop
      vertex 69.5 6 91.6
      vertex 52.091 27.409 91.6
      vertex 52.285 27.6303 91.6
    endloop
  endfacet
  facet normal 0 0 -1
    outer loop
      vertex 69.5 6 91.6
      vertex 51.8697 27.215 91.6
      vertex 52.091 27.409 91.6
    endloop
  endfacet
  facet normal 0 0 -1
    outer loop
      vertex 69.5 6 91.6
      vertex 51.625 27.0514 91.6
      vertex 51.8697 27.215 91.6
    endloop
  endfacet
  facet normal 0 0 -1
    outer loop
      vertex 69.5 6 91.6
      vertex 51.361 26.9213 91.6
      vertex 51.625 27.0514 91.6
    endloop
  endfacet
  facet normal 0 0 -1
    outer loop
      vertex 69.5 6 91.6
      vertex 51.0823 26.8267 91.6
      vertex 51.361 26.9213 91.6
    endloop
  endfacet
  facet normal 0 0 -1
    outer loop
      vertex 69.5 6 91.6
      vertex 50.7937 26.7692 91.6
      vertex 51.0823 26.8267 91.6
    endloop
  endfacet
  facet normal 0 0 -1
    outer loop
      vertex 69.5 6 91.6
      vertex 50.5 26.75 91.6
      vertex 50.7937 26.7692 91.6
    endloop
  endfacet
  facet normal 0 0 -1
    outer loop
      vertex 69.5 6 91.6
      vertex 50.2063 26.7692 91.6
      vertex 50.5 26.75 91.6
    endloop
  endfacet
  facet normal 0 0 -1
    outer loop
      vertex 69.5 6 91.6
      vertex 49.9177 26.8267 91.6
      vertex 50.2063 26.7692 91.6
    endloop
  endfacet
  facet normal 0 0 -1
    outer loop
      vertex 17.5 6 91.6
      vertex 49.9177 26.8267 91.6
      vertex 69.5 6 91.6
    endloop
  endfacet
  facet normal -0 0 -1
    outer loop
      vertex 49.9177 26.8267 91.6
      vertex 17.5 6 91.6
      vertex 49.639 26.9213 91.6
    endloop
  endfacet
  facet normal -0 0 -1
    outer loop
      vertex 49.639 26.9213 91.6
      vertex 17.5 6 91.6
      vertex 49.375 27.0514 91.6
    endloop
  endfacet
  facet normal -0 0 -1
    outer loop
      vertex 49.375 27.0514 91.6
      vertex 17.5 6 91.6
      vertex 49.1303 27.215 91.6
    endloop
  endfacet
  facet normal -0 0 -1
    outer loop
      vertex 48.2692 28.7063 91.6
      vertex 17.5 6 91.6
      vertex 48.25 29 91.6
    endloop
  endfacet
  facet normal -0 0 -1
    outer loop
      vertex 48.3267 28.4177 91.6
      vertex 17.5 6 91.6
      vertex 48.2692 28.7063 91.6
    endloop
  endfacet
  facet normal -0 0 -1
    outer loop
      vertex 48.4213 28.139 91.6
      vertex 17.5 6 91.6
      vertex 48.3267 28.4177 91.6
    endloop
  endfacet
  facet normal -0 0 -1
    outer loop
      vertex 48.5514 27.875 91.6
      vertex 17.5 6 91.6
      vertex 48.4213 28.139 91.6
    endloop
  endfacet
  facet normal -0 0 -1
    outer loop
      vertex 48.715 27.6303 91.6
      vertex 17.5 6 91.6
      vertex 48.5514 27.875 91.6
    endloop
  endfacet
  facet normal -0 0 -1
    outer loop
      vertex 48.909 27.409 91.6
      vertex 17.5 6 91.6
      vertex 48.715 27.6303 91.6
    endloop
  endfacet
  facet normal -0 0 -1
    outer loop
      vertex 49.1303 27.215 91.6
      vertex 17.5 6 91.6
      vertex 48.909 27.409 91.6
    endloop
  endfacet
  facet normal 0 0 -1
    outer loop
      vertex 52.7308 29.2937 91.6
      vertex 69.5 52 91.6
      vertex 52.75 29 91.6
    endloop
  endfacet
  facet normal 0 0 -1
    outer loop
      vertex 52.6733 29.5823 91.6
      vertex 69.5 52 91.6
      vertex 52.7308 29.2937 91.6
    endloop
  endfacet
  facet normal 0 0 -1
    outer loop
      vertex 52.5787 29.861 91.6
      vertex 69.5 52 91.6
      vertex 52.6733 29.5823 91.6
    endloop
  endfacet
  facet normal 0 0 -1
    outer loop
      vertex 52.4486 30.125 91.6
      vertex 69.5 52 91.6
      vertex 52.5787 29.861 91.6
    endloop
  endfacet
  facet normal 0 0 -1
    outer loop
      vertex 52.285 30.3697 91.6
      vertex 69.5 52 91.6
      vertex 52.4486 30.125 91.6
    endloop
  endfacet
  facet normal 0 0 -1
    outer loop
      vertex 52.091 30.591 91.6
      vertex 69.5 52 91.6
      vertex 52.285 30.3697 91.6
    endloop
  endfacet
  facet normal 0 0 -1
    outer loop
      vertex 51.8697 30.785 91.6
      vertex 69.5 52 91.6
      vertex 52.091 30.591 91.6
    endloop
  endfacet
  facet normal 0 0 -1
    outer loop
      vertex 51.625 30.9486 91.6
      vertex 69.5 52 91.6
      vertex 51.8697 30.785 91.6
    endloop
  endfacet
  facet normal 0 0 -1
    outer loop
      vertex 51.361 31.0787 91.6
      vertex 69.5 52 91.6
      vertex 51.625 30.9486 91.6
    endloop
  endfacet
  facet normal 0 0 -1
    outer loop
      vertex 51.0823 31.1733 91.6
      vertex 69.5 52 91.6
      vertex 51.361 31.0787 91.6
    endloop
  endfacet
  facet normal 0 0 -1
    outer loop
      vertex 50.7937 31.2308 91.6
      vertex 69.5 52 91.6
      vertex 51.0823 31.1733 91.6
    endloop
  endfacet
  facet normal 0 0 -1
    outer loop
      vertex 50.5 31.25 91.6
      vertex 69.5 52 91.6
      vertex 50.7937 31.2308 91.6
    endloop
  endfacet
  facet normal 0 0 -1
    outer loop
      vertex 50.2063 31.2308 91.6
      vertex 69.5 52 91.6
      vertex 50.5 31.25 91.6
    endloop
  endfacet
  facet normal 0 0 -1
    outer loop
      vertex 49.9177 31.1733 91.6
      vertex 69.5 52 91.6
      vertex 50.2063 31.2308 91.6
    endloop
  endfacet
  facet normal 0 0 -1
    outer loop
      vertex 17.5 52 91.6
      vertex 49.9177 31.1733 91.6
      vertex 49.639 31.0787 91.6
    endloop
  endfacet
  facet normal 0 0 -1
    outer loop
      vertex 17.5 52 91.6
      vertex 49.639 31.0787 91.6
      vertex 49.375 30.9486 91.6
    endloop
  endfacet
  facet normal 0 0 -1
    outer loop
      vertex 17.5 52 91.6
      vertex 49.375 30.9486 91.6
      vertex 49.1303 30.785 91.6
    endloop
  endfacet
  facet normal 0 0 -1
    outer loop
      vertex 17.5 52 91.6
      vertex 49.1303 30.785 91.6
      vertex 48.909 30.591 91.6
    endloop
  endfacet
  facet normal 0 0 -1
    outer loop
      vertex 17.5 52 91.6
      vertex 48.25 29 91.6
      vertex 17.5 6 91.6
    endloop
  endfacet
  facet normal 0 0 -1
    outer loop
      vertex 48.25 29 91.6
      vertex 17.5 52 91.6
      vertex 48.2692 29.2937 91.6
    endloop
  endfacet
  facet normal 0 0 -1
    outer loop
      vertex 48.2692 29.2937 91.6
      vertex 17.5 52 91.6
      vertex 48.3267 29.5823 91.6
    endloop
  endfacet
  facet normal 0 0 -1
    outer loop
      vertex 48.3267 29.5823 91.6
      vertex 17.5 52 91.6
      vertex 48.4213 29.861 91.6
    endloop
  endfacet
  facet normal 0 0 -1
    outer loop
      vertex 48.4213 29.861 91.6
      vertex 17.5 52 91.6
      vertex 48.5514 30.125 91.6
    endloop
  endfacet
  facet normal 0 0 -1
    outer loop
      vertex 48.5514 30.125 91.6
      vertex 17.5 52 91.6
      vertex 48.715 30.3697 91.6
    endloop
  endfacet
  facet normal 0 0 -1
    outer loop
      vertex 48.715 30.3697 91.6
      vertex 17.5 52 91.6
      vertex 48.909 30.591 91.6
    endloop
  endfacet
  facet normal 0 0 -1
    outer loop
      vertex 49.9177 31.1733 91.6
      vertex 17.5 52 91.6
      vertex 69.5 52 91.6
    endloop
  endfacet
  facet normal 0 0 -1
    outer loop
      vertex 127.5 6 91.6
      vertex 96.75 29 91.6
      vertex 127.5 52 91.6
    endloop
  endfacet
  facet normal 0 0 -1
    outer loop
      vertex 127.5 6 91.6
      vertex 96.7308 28.7063 91.6
      vertex 96.75 29 91.6
    endloop
  endfacet
  facet normal 0 0 -1
    outer loop
      vertex 127.5 6 91.6
      vertex 96.6733 28.4177 91.6
      vertex 96.7308 28.7063 91.6
    endloop
  endfacet
  facet normal 0 0 -1
    outer loop
      vertex 127.5 6 91.6
      vertex 96.5787 28.139 91.6
      vertex 96.6733 28.4177 91.6
    endloop
  endfacet
  facet normal 0 0 -1
    outer loop
      vertex 127.5 6 91.6
      vertex 96.4486 27.875 91.6
      vertex 96.5787 28.139 91.6
    endloop
  endfacet
  facet normal 0 0 -1
    outer loop
      vertex 127.5 6 91.6
      vertex 96.285 27.6303 91.6
      vertex 96.4486 27.875 91.6
    endloop
  endfacet
  facet normal 0 0 -1
    outer loop
      vertex 127.5 6 91.6
      vertex 96.091 27.409 91.6
      vertex 96.285 27.6303 91.6
    endloop
  endfacet
  facet normal 0 0 -1
    outer loop
      vertex 127.5 6 91.6
      vertex 95.8697 27.215 91.6
      vertex 96.091 27.409 91.6
    endloop
  endfacet
  facet normal 0 0 -1
    outer loop
      vertex 127.5 6 91.6
      vertex 95.625 27.0514 91.6
      vertex 95.8697 27.215 91.6
    endloop
  endfacet
  facet normal 0 0 -1
    outer loop
      vertex 127.5 6 91.6
      vertex 95.361 26.9213 91.6
      vertex 95.625 27.0514 91.6
    endloop
  endfacet
  facet normal 0 0 -1
    outer loop
      vertex 127.5 6 91.6
      vertex 95.0823 26.8267 91.6
      vertex 95.361 26.9213 91.6
    endloop
  endfacet
  facet normal 0 0 -1
    outer loop
      vertex 75.5 6 91.6
      vertex 95.0823 26.8267 91.6
      vertex 127.5 6 91.6
    endloop
  endfacet
  facet normal 0 0 -1
    outer loop
      vertex 95.0823 26.8267 91.6
      vertex 75.5 6 91.6
      vertex 94.7937 26.7692 91.6
    endloop
  endfacet
  facet normal 0 0 -1
    outer loop
      vertex 94.7937 26.7692 91.6
      vertex 75.5 6 91.6
      vertex 94.5 26.75 91.6
    endloop
  endfacet
  facet normal -0 0 -1
    outer loop
      vertex 94.5 26.75 91.6
      vertex 75.5 6 91.6
      vertex 94.2063 26.7692 91.6
    endloop
  endfacet
  facet normal -0 0 -1
    outer loop
      vertex 94.2063 26.7692 91.6
      vertex 75.5 6 91.6
      vertex 93.9177 26.8267 91.6
    endloop
  endfacet
  facet normal -0 0 -1
    outer loop
      vertex 93.9177 26.8267 91.6
      vertex 75.5 6 91.6
      vertex 93.639 26.9213 91.6
    endloop
  endfacet
  facet normal -0 0 -1
    outer loop
      vertex 92.2692 28.7063 91.6
      vertex 75.5 6 91.6
      vertex 92.25 29 91.6
    endloop
  endfacet
  facet normal -0 0 -1
    outer loop
      vertex 92.3267 28.4177 91.6
      vertex 75.5 6 91.6
      vertex 92.2692 28.7063 91.6
    endloop
  endfacet
  facet normal -0 0 -1
    outer loop
      vertex 92.4213 28.139 91.6
      vertex 75.5 6 91.6
      vertex 92.3267 28.4177 91.6
    endloop
  endfacet
  facet normal -0 0 -1
    outer loop
      vertex 92.5514 27.875 91.6
      vertex 75.5 6 91.6
      vertex 92.4213 28.139 91.6
    endloop
  endfacet
  facet normal -0 0 -1
    outer loop
      vertex 92.715 27.6303 91.6
      vertex 75.5 6 91.6
      vertex 92.5514 27.875 91.6
    endloop
  endfacet
  facet normal -0 0 -1
    outer loop
      vertex 92.909 27.409 91.6
      vertex 75.5 6 91.6
      vertex 92.715 27.6303 91.6
    endloop
  endfacet
  facet normal -0 0 -1
    outer loop
      vertex 93.1303 27.215 91.6
      vertex 75.5 6 91.6
      vertex 92.909 27.409 91.6
    endloop
  endfacet
  facet normal -0 0 -1
    outer loop
      vertex 93.375 27.0514 91.6
      vertex 75.5 6 91.6
      vertex 93.1303 27.215 91.6
    endloop
  endfacet
  facet normal -0 0 -1
    outer loop
      vertex 93.639 26.9213 91.6
      vertex 75.5 6 91.6
      vertex 93.375 27.0514 91.6
    endloop
  endfacet
  facet normal 0 0 -1
    outer loop
      vertex 96.7308 29.2937 91.6
      vertex 127.5 52 91.6
      vertex 96.75 29 91.6
    endloop
  endfacet
  facet normal 0 0 -1
    outer loop
      vertex 96.6733 29.5823 91.6
      vertex 127.5 52 91.6
      vertex 96.7308 29.2937 91.6
    endloop
  endfacet
  facet normal 0 0 -1
    outer loop
      vertex 96.5787 29.861 91.6
      vertex 127.5 52 91.6
      vertex 96.6733 29.5823 91.6
    endloop
  endfacet
  facet normal 0 0 -1
    outer loop
      vertex 96.4486 30.125 91.6
      vertex 127.5 52 91.6
      vertex 96.5787 29.861 91.6
    endloop
  endfacet
  facet normal 0 0 -1
    outer loop
      vertex 96.285 30.3697 91.6
      vertex 127.5 52 91.6
      vertex 96.4486 30.125 91.6
    endloop
  endfacet
  facet normal 0 0 -1
    outer loop
      vertex 96.091 30.591 91.6
      vertex 127.5 52 91.6
      vertex 96.285 30.3697 91.6
    endloop
  endfacet
  facet normal 0 0 -1
    outer loop
      vertex 95.8697 30.785 91.6
      vertex 127.5 52 91.6
      vertex 96.091 30.591 91.6
    endloop
  endfacet
  facet normal 0 0 -1
    outer loop
      vertex 95.625 30.9486 91.6
      vertex 127.5 52 91.6
      vertex 95.8697 30.785 91.6
    endloop
  endfacet
  facet normal 0 0 -1
    outer loop
      vertex 95.361 31.0787 91.6
      vertex 127.5 52 91.6
      vertex 95.625 30.9486 91.6
    endloop
  endfacet
  facet normal 0 0 -1
    outer loop
      vertex 95.0823 31.1733 91.6
      vertex 127.5 52 91.6
      vertex 95.361 31.0787 91.6
    endloop
  endfacet
  facet normal 0 0 -1
    outer loop
      vertex 75.5 52 91.6
      vertex 95.0823 31.1733 91.6
      vertex 94.7937 31.2308 91.6
    endloop
  endfacet
  facet normal 0 0 -1
    outer loop
      vertex 75.5 52 91.6
      vertex 94.7937 31.2308 91.6
      vertex 94.5 31.25 91.6
    endloop
  endfacet
  facet normal 0 0 -1
    outer loop
      vertex 75.5 52 91.6
      vertex 94.5 31.25 91.6
      vertex 94.2063 31.2308 91.6
    endloop
  endfacet
  facet normal 0 0 -1
    outer loop
      vertex 75.5 52 91.6
      vertex 94.2063 31.2308 91.6
      vertex 93.9177 31.1733 91.6
    endloop
  endfacet
  facet normal 0 0 -1
    outer loop
      vertex 75.5 52 91.6
      vertex 93.9177 31.1733 91.6
      vertex 93.639 31.0787 91.6
    endloop
  endfacet
  facet normal 0 0 -1
    outer loop
      vertex 75.5 52 91.6
      vertex 93.639 31.0787 91.6
      vertex 93.375 30.9486 91.6
    endloop
  endfacet
  facet normal 0 0 -1
    outer loop
      vertex 75.5 52 91.6
      vertex 92.25 29 91.6
      vertex 75.5 6 91.6
    endloop
  endfacet
  facet normal 0 0 -1
    outer loop
      vertex 92.25 29 91.6
      vertex 75.5 52 91.6
      vertex 92.2692 29.2937 91.6
    endloop
  endfacet
  facet normal 0 0 -1
    outer loop
      vertex 92.2692 29.2937 91.6
      vertex 75.5 52 91.6
      vertex 92.3267 29.5823 91.6
    endloop
  endfacet
  facet normal 0 0 -1
    outer loop
      vertex 92.3267 29.5823 91.6
      vertex 75.5 52 91.6
      vertex 92.4213 29.861 91.6
    endloop
  endfacet
  facet normal 0 0 -1
    outer loop
      vertex 92.4213 29.861 91.6
      vertex 75.5 52 91.6
      vertex 92.5514 30.125 91.6
    endloop
  endfacet
  facet normal 0 0 -1
    outer loop
      vertex 95.0823 31.1733 91.6
      vertex 75.5 52 91.6
      vertex 127.5 52 91.6
    endloop
  endfacet
  facet normal 0 0 -1
    outer loop
      vertex 93.1303 30.785 91.6
      vertex 75.5 52 91.6
      vertex 93.375 30.9486 91.6
    endloop
  endfacet
  facet normal 0 0 -1
    outer loop
      vertex 92.909 30.591 91.6
      vertex 75.5 52 91.6
      vertex 93.1303 30.785 91.6
    endloop
  endfacet
  facet normal 0 0 -1
    outer loop
      vertex 92.715 30.3697 91.6
      vertex 75.5 52 91.6
      vertex 92.909 30.591 91.6
    endloop
  endfacet
  facet normal 0 0 -1
    outer loop
      vertex 92.5514 30.125 91.6
      vertex 75.5 52 91.6
      vertex 92.715 30.3697 91.6
    endloop
  endfacet
  facet normal -1 0 0
    outer loop
      vertex 17.5 52 91.6
      vertex 17.5 6 91.6
      vertex 17.5 52 92
    endloop
  endfacet
  facet normal -1 0 0
    outer loop
      vertex 17.5 52 92
      vertex 17.5 58 106
      vertex 17.5 58 92
    endloop
  endfacet
  facet normal -1 0 0
    outer loop
      vertex 17.5 6 92
      vertex 17.5 52 92
      vertex 17.5 6 91.6
    endloop
  endfacet
  facet normal -1 0 0
    outer loop
      vertex 17.5 52 92
      vertex 17.5 6 92
      vertex 17.5 58 106
    endloop
  endfacet
  facet normal -1 0 0
    outer loop
      vertex 17.5 0 106
      vertex 17.5 6 92
      vertex 17.5 0 92
    endloop
  endfacet
  facet normal -1 0 0
    outer loop
      vertex 17.5 6 92
      vertex 17.5 0 106
      vertex 17.5 58 106
    endloop
  endfacet
  facet normal 0 1 0
    outer loop
      vertex 127.5 58 106
      vertex 123.5 58 102
      vertex 123.5 58 106
    endloop
  endfacet
  facet normal 0 1 0
    outer loop
      vertex 92.5 58 78
      vertex 123.5 58 102
      vertex 127.5 58 92
    endloop
  endfacet
  facet normal 0 1 -0
    outer loop
      vertex 127.5 58 92
      vertex 123.5 58 102
      vertex 127.5 58 106
    endloop
  endfacet
  facet normal 0 1 -0
    outer loop
      vertex 21.5 58 102
      vertex 17.5 58 106
      vertex 21.5 58 106
    endloop
  endfacet
  facet normal 0 1 0
    outer loop
      vertex 21.5 58 102
      vertex 17.5 58 92
      vertex 17.5 58 106
    endloop
  endfacet
  facet normal 0 1 0
    outer loop
      vertex 123.5 58 102
      vertex 75.5 58 78
      vertex 21.5 58 102
    endloop
  endfacet
  facet normal 0 1 0
    outer loop
      vertex 123.5 58 102
      vertex 92.5 58 78
      vertex 75.5 58 78
    endloop
  endfacet
  facet normal 0 1 0
    outer loop
      vertex 127.5 58 92
      vertex 129 58 28
      vertex 92.5 58 78
    endloop
  endfacet
  facet normal 0 1 0
    outer loop
      vertex 145 58 0
      vertex 75.5 58 28
      vertex 129 58 28
    endloop
  endfacet
  facet normal 0 1 0
    outer loop
      vertex 75.5 58 28
      vertex 145 58 0
      vertex 69.5 58 28
    endloop
  endfacet
  facet normal 0 1 -0
    outer loop
      vertex 145 58 0
      vertex 129 58 28
      vertex 145 58 10
    endloop
  endfacet
  facet normal 0 1 0
    outer loop
      vertex 145 58 10
      vertex 129 58 28
      vertex 127.5 58 92
    endloop
  endfacet
  facet normal 0 1 -0
    outer loop
      vertex 75.5 58 28
      vertex 69.5 58 78
      vertex 75.5 58 78
    endloop
  endfacet
  facet normal 0 1 0
    outer loop
      vertex 69.5 58 78
      vertex 75.5 58 28
      vertex 69.5 58 28
    endloop
  endfacet
  facet normal 0 1 -0
    outer loop
      vertex 69.5 58 78
      vertex 21.5 58 102
      vertex 75.5 58 78
    endloop
  endfacet
  facet normal 0 1 -0
    outer loop
      vertex 52.5 58 78
      vertex 21.5 58 102
      vertex 69.5 58 78
    endloop
  endfacet
  facet normal 0 1 0
    outer loop
      vertex 21.5 58 102
      vertex 52.5 58 78
      vertex 17.5 58 92
    endloop
  endfacet
  facet normal 0 1 0
    outer loop
      vertex 16 58 28
      vertex 17.5 58 92
      vertex 52.5 58 78
    endloop
  endfacet
  facet normal 0 1 -0
    outer loop
      vertex 16 58 28
      vertex 0 58 10
      vertex 17.5 58 92
    endloop
  endfacet
  facet normal 0 1 0
    outer loop
      vertex 0 58 0
      vertex 69.5 58 28
      vertex 145 58 0
    endloop
  endfacet
  facet normal 0 1 0
    outer loop
      vertex 69.5 58 28
      vertex 0 58 0
      vertex 16 58 28
    endloop
  endfacet
  facet normal 0 1 0
    outer loop
      vertex 16 58 28
      vertex 0 58 0
      vertex 0 58 10
    endloop
  endfacet
  facet normal 0 -1 0
    outer loop
      vertex 17.5 0 106
      vertex 21.5 0 102
      vertex 21.5 0 106
    endloop
  endfacet
  facet normal 0 -1 0
    outer loop
      vertex 52.5 0 78
      vertex 21.5 0 102
      vertex 17.5 0 92
    endloop
  endfacet
  facet normal 0 -1 0
    outer loop
      vertex 17.5 0 92
      vertex 21.5 0 102
      vertex 17.5 0 106
    endloop
  endfacet
  facet normal 0 -1 0
    outer loop
      vertex 123.5 0 102
      vertex 127.5 0 106
      vertex 123.5 0 106
    endloop
  endfacet
  facet normal 0 -1 0
    outer loop
      vertex 123.5 0 102
      vertex 127.5 0 92
      vertex 127.5 0 106
    endloop
  endfacet
  facet normal 0 -1 0
    outer loop
      vertex 21.5 0 102
      vertex 69.5 0 78
      vertex 123.5 0 102
    endloop
  endfacet
  facet normal 0 -1 0
    outer loop
      vertex 21.5 0 102
      vertex 52.5 0 78
      vertex 69.5 0 78
    endloop
  endfacet
  facet normal 0 -1 -0
    outer loop
      vertex 17.5 0 92
      vertex 16 0 28
      vertex 52.5 0 78
    endloop
  endfacet
  facet normal 0 -1 0
    outer loop
      vertex 0 0 0
      vertex 69.5 0 28
      vertex 16 0 28
    endloop
  endfacet
  facet normal 0 -1 -0
    outer loop
      vertex 69.5 0 28
      vertex 0 0 0
      vertex 75.5 0 28
    endloop
  endfacet
  facet normal 0 -1 0
    outer loop
      vertex 0 0 0
      vertex 16 0 28
      vertex 0 0 10
    endloop
  endfacet
  facet normal 0 -1 0
    outer loop
      vertex 0 0 10
      vertex 16 0 28
      vertex 17.5 0 92
    endloop
  endfacet
  facet normal 0 -1 0
    outer loop
      vertex 69.5 0 28
      vertex 75.5 0 78
      vertex 69.5 0 78
    endloop
  endfacet
  facet normal 0 -1 -0
    outer loop
      vertex 75.5 0 78
      vertex 69.5 0 28
      vertex 75.5 0 28
    endloop
  endfacet
  facet normal 0 -1 0
    outer loop
      vertex 75.5 0 78
      vertex 123.5 0 102
      vertex 69.5 0 78
    endloop
  endfacet
  facet normal 0 -1 0
    outer loop
      vertex 92.5 0 78
      vertex 123.5 0 102
      vertex 75.5 0 78
    endloop
  endfacet
  facet normal 0 -1 -0
    outer loop
      vertex 123.5 0 102
      vertex 92.5 0 78
      vertex 127.5 0 92
    endloop
  endfacet
  facet normal 0 -1 0
    outer loop
      vertex 129 0 28
      vertex 127.5 0 92
      vertex 92.5 0 78
    endloop
  endfacet
  facet normal 0 -1 0
    outer loop
      vertex 129 0 28
      vertex 145 0 10
      vertex 127.5 0 92
    endloop
  endfacet
  facet normal 0 -1 0
    outer loop
      vertex 145 0 0
      vertex 75.5 0 28
      vertex 0 0 0
    endloop
  endfacet
  facet normal 0 -1 0
    outer loop
      vertex 75.5 0 28
      vertex 145 0 0
      vertex 129 0 28
    endloop
  endfacet
  facet normal 0 -1 0
    outer loop
      vertex 129 0 28
      vertex 145 0 0
      vertex 145 0 10
    endloop
  endfacet
  facet normal -1 0 0
    outer loop
      vertex 123.5 52 102
      vertex 123.5 58 106
      vertex 123.5 58 102
    endloop
  endfacet
  facet normal -1 0 0
    outer loop
      vertex 123.5 6 102
      vertex 123.5 58 106
      vertex 123.5 52 102
    endloop
  endfacet
  facet normal -1 0 0
    outer loop
      vertex 123.5 0 106
      vertex 123.5 6 102
      vertex 123.5 0 102
    endloop
  endfacet
  facet normal -1 0 0
    outer loop
      vertex 123.5 6 102
      vertex 123.5 0 106
      vertex 123.5 58 106
    endloop
  endfacet
  facet normal 0 0 1
    outer loop
      vertex 123.5 52 102
      vertex 96.75 29 102
      vertex 123.5 6 102
    endloop
  endfacet
  facet normal 0 0 1
    outer loop
      vertex 123.5 52 102
      vertex 96.7308 29.2937 102
      vertex 96.75 29 102
    endloop
  endfacet
  facet normal 0 0 1
    outer loop
      vertex 123.5 52 102
      vertex 96.6733 29.5823 102
      vertex 96.7308 29.2937 102
    endloop
  endfacet
  facet normal 0 0 1
    outer loop
      vertex 123.5 52 102
      vertex 96.5787 29.861 102
      vertex 96.6733 29.5823 102
    endloop
  endfacet
  facet normal 0 0 1
    outer loop
      vertex 123.5 52 102
      vertex 96.4486 30.125 102
      vertex 96.5787 29.861 102
    endloop
  endfacet
  facet normal 0 0 1
    outer loop
      vertex 123.5 52 102
      vertex 96.285 30.3697 102
      vertex 96.4486 30.125 102
    endloop
  endfacet
  facet normal 0 0 1
    outer loop
      vertex 123.5 52 102
      vertex 96.091 30.591 102
      vertex 96.285 30.3697 102
    endloop
  endfacet
  facet normal 0 0 1
    outer loop
      vertex 123.5 52 102
      vertex 95.8697 30.785 102
      vertex 96.091 30.591 102
    endloop
  endfacet
  facet normal 0 0 1
    outer loop
      vertex 123.5 52 102
      vertex 95.625 30.9486 102
      vertex 95.8697 30.785 102
    endloop
  endfacet
  facet normal 0 0 1
    outer loop
      vertex 123.5 52 102
      vertex 95.361 31.0787 102
      vertex 95.625 30.9486 102
    endloop
  endfacet
  facet normal 0 0 1
    outer loop
      vertex 123.5 52 102
      vertex 95.0823 31.1733 102
      vertex 95.361 31.0787 102
    endloop
  endfacet
  facet normal 0 0 1
    outer loop
      vertex 123.5 52 102
      vertex 94.7937 31.2308 102
      vertex 95.0823 31.1733 102
    endloop
  endfacet
  facet normal 0 0 1
    outer loop
      vertex 123.5 52 102
      vertex 94.5 31.25 102
      vertex 94.7937 31.2308 102
    endloop
  endfacet
  facet normal 0 0 1
    outer loop
      vertex 123.5 52 102
      vertex 94.2063 31.2308 102
      vertex 94.5 31.25 102
    endloop
  endfacet
  facet normal 0 0 1
    outer loop
      vertex 123.5 52 102
      vertex 93.9177 31.1733 102
      vertex 94.2063 31.2308 102
    endloop
  endfacet
  facet normal 0 0 1
    outer loop
      vertex 123.5 52 102
      vertex 93.639 31.0787 102
      vertex 93.9177 31.1733 102
    endloop
  endfacet
  facet normal 0 0 1
    outer loop
      vertex 51.361 31.0787 102
      vertex 93.639 31.0787 102
      vertex 123.5 52 102
    endloop
  endfacet
  facet normal 0 0 1
    outer loop
      vertex 93.639 31.0787 102
      vertex 51.361 31.0787 102
      vertex 93.375 30.9486 102
    endloop
  endfacet
  facet normal 0 0 1
    outer loop
      vertex 92.2692 29.2937 102
      vertex 52.75 29 102
      vertex 92.25 29 102
    endloop
  endfacet
  facet normal 0 0 1
    outer loop
      vertex 52.7308 29.2937 102
      vertex 92.2692 29.2937 102
      vertex 92.3267 29.5823 102
    endloop
  endfacet
  facet normal 0 0 1
    outer loop
      vertex 52.6733 29.5823 102
      vertex 92.3267 29.5823 102
      vertex 92.4213 29.861 102
    endloop
  endfacet
  facet normal 0 0 1
    outer loop
      vertex 52.5787 29.861 102
      vertex 92.4213 29.861 102
      vertex 92.5514 30.125 102
    endloop
  endfacet
  facet normal 0 0 1
    outer loop
      vertex 52.4486 30.125 102
      vertex 92.5514 30.125 102
      vertex 92.715 30.3697 102
    endloop
  endfacet
  facet normal 0 0 1
    outer loop
      vertex 52.285 30.3697 102
      vertex 92.715 30.3697 102
      vertex 92.909 30.591 102
    endloop
  endfacet
  facet normal 0 0 1
    outer loop
      vertex 52.091 30.591 102
      vertex 92.909 30.591 102
      vertex 93.1303 30.785 102
    endloop
  endfacet
  facet normal 0 -0 1
    outer loop
      vertex 51.625 30.9486 102
      vertex 93.375 30.9486 102
      vertex 51.361 31.0787 102
    endloop
  endfacet
  facet normal 0 0 1
    outer loop
      vertex 92.2692 29.2937 102
      vertex 52.7308 29.2937 102
      vertex 52.75 29 102
    endloop
  endfacet
  facet normal 0 0 1
    outer loop
      vertex 92.3267 29.5823 102
      vertex 52.6733 29.5823 102
      vertex 52.7308 29.2937 102
    endloop
  endfacet
  facet normal 0 0 1
    outer loop
      vertex 92.4213 29.861 102
      vertex 52.5787 29.861 102
      vertex 52.6733 29.5823 102
    endloop
  endfacet
  facet normal 0 0 1
    outer loop
      vertex 92.5514 30.125 102
      vertex 52.4486 30.125 102
      vertex 52.5787 29.861 102
    endloop
  endfacet
  facet normal 0 0 1
    outer loop
      vertex 92.715 30.3697 102
      vertex 52.285 30.3697 102
      vertex 52.4486 30.125 102
    endloop
  endfacet
  facet normal 0 0 1
    outer loop
      vertex 92.909 30.591 102
      vertex 52.091 30.591 102
      vertex 52.285 30.3697 102
    endloop
  endfacet
  facet normal 0 0 1
    outer loop
      vertex 93.1303 30.785 102
      vertex 51.8697 30.785 102
      vertex 52.091 30.591 102
    endloop
  endfacet
  facet normal 0 0 1
    outer loop
      vertex 93.1303 30.785 102
      vertex 51.625 30.9486 102
      vertex 51.8697 30.785 102
    endloop
  endfacet
  facet normal 0 0 1
    outer loop
      vertex 93.375 30.9486 102
      vertex 51.625 30.9486 102
      vertex 93.1303 30.785 102
    endloop
  endfacet
  facet normal 0 0 1
    outer loop
      vertex 123.5 52 102
      vertex 51.0823 31.1733 102
      vertex 51.361 31.0787 102
    endloop
  endfacet
  facet normal -0 0 1
    outer loop
      vertex 21.5 52 102
      vertex 51.0823 31.1733 102
      vertex 123.5 52 102
    endloop
  endfacet
  facet normal 0 0 1
    outer loop
      vertex 51.0823 31.1733 102
      vertex 21.5 52 102
      vertex 50.7937 31.2308 102
    endloop
  endfacet
  facet normal 0 0 1
    outer loop
      vertex 50.7937 31.2308 102
      vertex 21.5 52 102
      vertex 50.5 31.25 102
    endloop
  endfacet
  facet normal 0 0 1
    outer loop
      vertex 50.5 31.25 102
      vertex 21.5 52 102
      vertex 50.2063 31.2308 102
    endloop
  endfacet
  facet normal 0 0 1
    outer loop
      vertex 48.2692 29.2937 102
      vertex 21.5 52 102
      vertex 48.25 29 102
    endloop
  endfacet
  facet normal 0 0 1
    outer loop
      vertex 48.3267 29.5823 102
      vertex 21.5 52 102
      vertex 48.2692 29.2937 102
    endloop
  endfacet
  facet normal 0 0 1
    outer loop
      vertex 48.4213 29.861 102
      vertex 21.5 52 102
      vertex 48.3267 29.5823 102
    endloop
  endfacet
  facet normal 0 0 1
    outer loop
      vertex 48.5514 30.125 102
      vertex 21.5 52 102
      vertex 48.4213 29.861 102
    endloop
  endfacet
  facet normal 0 0 1
    outer loop
      vertex 48.715 30.3697 102
      vertex 21.5 52 102
      vertex 48.5514 30.125 102
    endloop
  endfacet
  facet normal 0 0 1
    outer loop
      vertex 48.909 30.591 102
      vertex 21.5 52 102
      vertex 48.715 30.3697 102
    endloop
  endfacet
  facet normal 0 0 1
    outer loop
      vertex 49.1303 30.785 102
      vertex 21.5 52 102
      vertex 48.909 30.591 102
    endloop
  endfacet
  facet normal 0 0 1
    outer loop
      vertex 49.375 30.9486 102
      vertex 21.5 52 102
      vertex 49.1303 30.785 102
    endloop
  endfacet
  facet normal 0 0 1
    outer loop
      vertex 49.639 31.0787 102
      vertex 21.5 52 102
      vertex 49.375 30.9486 102
    endloop
  endfacet
  facet normal 0 0 1
    outer loop
      vertex 49.9177 31.1733 102
      vertex 21.5 52 102
      vertex 49.639 31.0787 102
    endloop
  endfacet
  facet normal 0 0 1
    outer loop
      vertex 50.2063 31.2308 102
      vertex 21.5 52 102
      vertex 49.9177 31.1733 102
    endloop
  endfacet
  facet normal -0 0 1
    outer loop
      vertex 96.7308 28.7063 102
      vertex 123.5 6 102
      vertex 96.75 29 102
    endloop
  endfacet
  facet normal -0 0 1
    outer loop
      vertex 96.6733 28.4177 102
      vertex 123.5 6 102
      vertex 96.7308 28.7063 102
    endloop
  endfacet
  facet normal -0 0 1
    outer loop
      vertex 96.5787 28.139 102
      vertex 123.5 6 102
      vertex 96.6733 28.4177 102
    endloop
  endfacet
  facet normal -0 0 1
    outer loop
      vertex 96.4486 27.875 102
      vertex 123.5 6 102
      vertex 96.5787 28.139 102
    endloop
  endfacet
  facet normal -0 0 1
    outer loop
      vertex 96.285 27.6303 102
      vertex 123.5 6 102
      vertex 96.4486 27.875 102
    endloop
  endfacet
  facet normal -0 0 1
    outer loop
      vertex 96.091 27.409 102
      vertex 123.5 6 102
      vertex 96.285 27.6303 102
    endloop
  endfacet
  facet normal -0 0 1
    outer loop
      vertex 95.8697 27.215 102
      vertex 123.5 6 102
      vertex 96.091 27.409 102
    endloop
  endfacet
  facet normal -0 0 1
    outer loop
      vertex 95.625 27.0514 102
      vertex 123.5 6 102
      vertex 95.8697 27.215 102
    endloop
  endfacet
  facet normal -0 0 1
    outer loop
      vertex 95.361 26.9213 102
      vertex 123.5 6 102
      vertex 95.625 27.0514 102
    endloop
  endfacet
  facet normal -0 0 1
    outer loop
      vertex 95.0823 26.8267 102
      vertex 123.5 6 102
      vertex 95.361 26.9213 102
    endloop
  endfacet
  facet normal -0 0 1
    outer loop
      vertex 94.7937 26.7692 102
      vertex 123.5 6 102
      vertex 95.0823 26.8267 102
    endloop
  endfacet
  facet normal -0 0 1
    outer loop
      vertex 94.5 26.75 102
      vertex 123.5 6 102
      vertex 94.7937 26.7692 102
    endloop
  endfacet
  facet normal 0 0 1
    outer loop
      vertex 94.2063 26.7692 102
      vertex 123.5 6 102
      vertex 94.5 26.75 102
    endloop
  endfacet
  facet normal 0 0 1
    outer loop
      vertex 93.9177 26.8267 102
      vertex 123.5 6 102
      vertex 94.2063 26.7692 102
    endloop
  endfacet
  facet normal 0 0 1
    outer loop
      vertex 93.639 26.9213 102
      vertex 123.5 6 102
      vertex 93.9177 26.8267 102
    endloop
  endfacet
  facet normal 0 0 1
    outer loop
      vertex 51.361 26.9213 102
      vertex 93.639 26.9213 102
      vertex 93.375 27.0514 102
    endloop
  endfacet
  facet normal 0 0 1
    outer loop
      vertex 51.625 27.0514 102
      vertex 93.375 27.0514 102
      vertex 93.1303 27.215 102
    endloop
  endfacet
  facet normal -0 0 1
    outer loop
      vertex 52.75 29 102
      vertex 92.2692 28.7063 102
      vertex 92.25 29 102
    endloop
  endfacet
  facet normal 0 0 1
    outer loop
      vertex 52.7308 28.7063 102
      vertex 92.2692 28.7063 102
      vertex 52.75 29 102
    endloop
  endfacet
  facet normal 0 0 1
    outer loop
      vertex 92.2692 28.7063 102
      vertex 52.7308 28.7063 102
      vertex 92.3267 28.4177 102
    endloop
  endfacet
  facet normal 0 0 1
    outer loop
      vertex 52.6733 28.4177 102
      vertex 92.3267 28.4177 102
      vertex 52.7308 28.7063 102
    endloop
  endfacet
  facet normal 0 0 1
    outer loop
      vertex 92.3267 28.4177 102
      vertex 52.6733 28.4177 102
      vertex 92.4213 28.139 102
    endloop
  endfacet
  facet normal 0 0 1
    outer loop
      vertex 52.5787 28.139 102
      vertex 92.4213 28.139 102
      vertex 52.6733 28.4177 102
    endloop
  endfacet
  facet normal 0 0 1
    outer loop
      vertex 92.4213 28.139 102
      vertex 52.5787 28.139 102
      vertex 92.5514 27.875 102
    endloop
  endfacet
  facet normal 0 0 1
    outer loop
      vertex 52.4486 27.875 102
      vertex 92.5514 27.875 102
      vertex 52.5787 28.139 102
    endloop
  endfacet
  facet normal 0 0 1
    outer loop
      vertex 92.5514 27.875 102
      vertex 52.4486 27.875 102
      vertex 92.715 27.6303 102
    endloop
  endfacet
  facet normal 0 0 1
    outer loop
      vertex 52.285 27.6303 102
      vertex 92.715 27.6303 102
      vertex 52.4486 27.875 102
    endloop
  endfacet
  facet normal 0 0 1
    outer loop
      vertex 92.715 27.6303 102
      vertex 52.285 27.6303 102
      vertex 92.909 27.409 102
    endloop
  endfacet
  facet normal 0 0 1
    outer loop
      vertex 52.091 27.409 102
      vertex 92.909 27.409 102
      vertex 52.285 27.6303 102
    endloop
  endfacet
  facet normal 0 0 1
    outer loop
      vertex 92.909 27.409 102
      vertex 52.091 27.409 102
      vertex 93.1303 27.215 102
    endloop
  endfacet
  facet normal 0 0 1
    outer loop
      vertex 51.8697 27.215 102
      vertex 93.1303 27.215 102
      vertex 52.091 27.409 102
    endloop
  endfacet
  facet normal 0 0 1
    outer loop
      vertex 51.625 27.0514 102
      vertex 93.1303 27.215 102
      vertex 51.8697 27.215 102
    endloop
  endfacet
  facet normal 0 0 1
    outer loop
      vertex 93.375 27.0514 102
      vertex 51.625 27.0514 102
      vertex 51.361 26.9213 102
    endloop
  endfacet
  facet normal 0 0 1
    outer loop
      vertex 93.639 26.9213 102
      vertex 51.361 26.9213 102
      vertex 123.5 6 102
    endloop
  endfacet
  facet normal -0 0 1
    outer loop
      vertex 51.0823 26.8267 102
      vertex 123.5 6 102
      vertex 51.361 26.9213 102
    endloop
  endfacet
  facet normal 0 0 1
    outer loop
      vertex 21.5 6 102
      vertex 51.0823 26.8267 102
      vertex 50.7937 26.7692 102
    endloop
  endfacet
  facet normal 0 0 1
    outer loop
      vertex 21.5 6 102
      vertex 50.7937 26.7692 102
      vertex 50.5 26.75 102
    endloop
  endfacet
  facet normal 0 0 1
    outer loop
      vertex 21.5 6 102
      vertex 50.5 26.75 102
      vertex 50.2063 26.7692 102
    endloop
  endfacet
  facet normal 0 0 1
    outer loop
      vertex 21.5 6 102
      vertex 50.2063 26.7692 102
      vertex 49.9177 26.8267 102
    endloop
  endfacet
  facet normal 0 0 1
    outer loop
      vertex 21.5 6 102
      vertex 48.25 29 102
      vertex 21.5 52 102
    endloop
  endfacet
  facet normal 0 0 1
    outer loop
      vertex 48.25 29 102
      vertex 21.5 6 102
      vertex 48.2692 28.7063 102
    endloop
  endfacet
  facet normal 0 0 1
    outer loop
      vertex 48.2692 28.7063 102
      vertex 21.5 6 102
      vertex 48.3267 28.4177 102
    endloop
  endfacet
  facet normal 0 0 1
    outer loop
      vertex 48.3267 28.4177 102
      vertex 21.5 6 102
      vertex 48.4213 28.139 102
    endloop
  endfacet
  facet normal 0 0 1
    outer loop
      vertex 48.4213 28.139 102
      vertex 21.5 6 102
      vertex 48.5514 27.875 102
    endloop
  endfacet
  facet normal 0 0 1
    outer loop
      vertex 48.5514 27.875 102
      vertex 21.5 6 102
      vertex 48.715 27.6303 102
    endloop
  endfacet
  facet normal 0 0 1
    outer loop
      vertex 51.0823 26.8267 102
      vertex 21.5 6 102
      vertex 123.5 6 102
    endloop
  endfacet
  facet normal 0 0 1
    outer loop
      vertex 49.639 26.9213 102
      vertex 21.5 6 102
      vertex 49.9177 26.8267 102
    endloop
  endfacet
  facet normal 0 0 1
    outer loop
      vertex 49.375 27.0514 102
      vertex 21.5 6 102
      vertex 49.639 26.9213 102
    endloop
  endfacet
  facet normal 0 0 1
    outer loop
      vertex 49.1303 27.215 102
      vertex 21.5 6 102
      vertex 49.375 27.0514 102
    endloop
  endfacet
  facet normal 0 0 1
    outer loop
      vertex 48.909 27.409 102
      vertex 21.5 6 102
      vertex 49.1303 27.215 102
    endloop
  endfacet
  facet normal 0 0 1
    outer loop
      vertex 48.715 27.6303 102
      vertex 21.5 6 102
      vertex 48.909 27.409 102
    endloop
  endfacet
  facet normal 1 0 0
    outer loop
      vertex 21.5 58 106
      vertex 21.5 52 102
      vertex 21.5 58 102
    endloop
  endfacet
  facet normal 1 0 0
    outer loop
      vertex 21.5 58 106
      vertex 21.5 6 102
      vertex 21.5 52 102
    endloop
  endfacet
  facet normal 1 -0 0
    outer loop
      vertex 21.5 0 106
      vertex 21.5 6 102
      vertex 21.5 58 106
    endloop
  endfacet
  facet normal 1 0 0
    outer loop
      vertex 21.5 6 102
      vertex 21.5 0 106
      vertex 21.5 0 102
    endloop
  endfacet
  facet normal 1 -0 0
    outer loop
      vertex 145 52 10
      vertex 145 58 0
      vertex 145 58 10
    endloop
  endfacet
  facet normal 1 -0 0
    outer loop
      vertex 145 6 10
      vertex 145 58 0
      vertex 145 52 10
    endloop
  endfacet
  facet normal 1 0 0
    outer loop
      vertex 145 0 0
      vertex 145 6 10
      vertex 145 0 10
    endloop
  endfacet
  facet normal 1 0 0
    outer loop
      vertex 145 6 10
      vertex 145 0 0
      vertex 145 58 0
    endloop
  endfacet
  facet normal -0 0 1
    outer loop
      vertex 0 52 10
      vertex 69.5 6 10
      vertex 69.5 52 10
    endloop
  endfacet
  facet normal 0 0 1
    outer loop
      vertex 69.5 6 10
      vertex 0 52 10
      vertex 0 6 10
    endloop
  endfacet
  facet normal -0 0 1
    outer loop
      vertex 75.5 52 10
      vertex 145 6 10
      vertex 145 52 10
    endloop
  endfacet
  facet normal 0 0 1
    outer loop
      vertex 145 6 10
      vertex 75.5 52 10
      vertex 75.5 6 10
    endloop
  endfacet
  facet normal 0 0 -1
    outer loop
      vertex 0 0 0
      vertex 145 58 0
      vertex 145 0 0
    endloop
  endfacet
  facet normal -0 0 -1
    outer loop
      vertex 145 58 0
      vertex 0 0 0
      vertex 0 58 0
    endloop
  endfacet
  facet normal -1 0 0
    outer loop
      vertex 0 58 0
      vertex 0 52 10
      vertex 0 58 10
    endloop
  endfacet
  facet normal -1 0 0
    outer loop
      vertex 0 58 0
      vertex 0 6 10
      vertex 0 52 10
    endloop
  endfacet
  facet normal -1 0 0
    outer loop
      vertex 0 0 0
      vertex 0 6 10
      vertex 0 58 0
    endloop
  endfacet
  facet normal -1 -0 0
    outer loop
      vertex 0 6 10
      vertex 0 0 0
      vertex 0 0 10
    endloop
  endfacet
  facet normal 0 1 0
    outer loop
      vertex 69.5 6 28
      vertex 69.5 6 10
      vertex 16 6 28
    endloop
  endfacet
  facet normal 0 1 0
    outer loop
      vertex 52.5 6 78
      vertex 69.5 6 91.6
      vertex 69.5 6 78
    endloop
  endfacet
  facet normal 0 1 0
    outer loop
      vertex 69.5 6 91.6
      vertex 52.5 6 78
      vertex 17.5 6 91.6
    endloop
  endfacet
  facet normal 0 1 0
    outer loop
      vertex 16 6 28
      vertex 17.5 6 91.6
      vertex 52.5 6 78
    endloop
  endfacet
  facet normal 0 1 0
    outer loop
      vertex 0 6 10
      vertex 17.5 6 91.6
      vertex 16 6 28
    endloop
  endfacet
  facet normal 0 1 -0
    outer loop
      vertex 17.5 6 91.6
      vertex 0 6 10
      vertex 17.5 6 92
    endloop
  endfacet
  facet normal 0 1 0
    outer loop
      vertex 0 6 10
      vertex 16 6 28
      vertex 69.5 6 10
    endloop
  endfacet
  facet normal 0 1 0
    outer loop
      vertex 127.5 6 91.6
      vertex 92.5 6 78
      vertex 75.5 6 91.6
    endloop
  endfacet
  facet normal 0 1 0
    outer loop
      vertex 127.5 6 91.6
      vertex 129 6 28
      vertex 92.5 6 78
    endloop
  endfacet
  facet normal 0 1 0
    outer loop
      vertex 145 6 10
      vertex 127.5 6 91.6
      vertex 127.5 6 92
    endloop
  endfacet
  facet normal 0 1 0
    outer loop
      vertex 127.5 6 91.6
      vertex 145 6 10
      vertex 129 6 28
    endloop
  endfacet
  facet normal 0 1 0
    outer loop
      vertex 75.5 6 10
      vertex 129 6 28
      vertex 145 6 10
    endloop
  endfacet
  facet normal 0 1 0
    outer loop
      vertex 129 6 28
      vertex 75.5 6 10
      vertex 75.5 6 28
    endloop
  endfacet
  facet normal 0 1 0
    outer loop
      vertex 75.5 6 91.6
      vertex 92.5 6 78
      vertex 75.5 6 78
    endloop
  endfacet
  facet normal 0.977977 -0 0.208715
    outer loop
      vertex 127.5 0 92
      vertex 145 6 10
      vertex 127.5 6 92
    endloop
  endfacet
  facet normal 0.977977 0 0.208715
    outer loop
      vertex 145 6 10
      vertex 127.5 0 92
      vertex 145 0 10
    endloop
  endfacet
  facet normal -0 0 1
    outer loop
      vertex 21.5 6 102
      vertex 123.5 0 102
      vertex 123.5 6 102
    endloop
  endfacet
  facet normal 0 0 1
    outer loop
      vertex 123.5 0 102
      vertex 21.5 6 102
      vertex 21.5 0 102
    endloop
  endfacet
  facet normal -0.977977 0 0.208715
    outer loop
      vertex 0 0 10
      vertex 17.5 6 92
      vertex 0 6 10
    endloop
  endfacet
  facet normal -0.977977 0 0.208715
    outer loop
      vertex 17.5 6 92
      vertex 0 0 10
      vertex 17.5 0 92
    endloop
  endfacet
  facet normal 0.807687 0 -0.589612
    outer loop
      vertex 52.5 0 78
      vertex 16 6 28
      vertex 52.5 6 78
    endloop
  endfacet
  facet normal 0.807687 0 -0.589612
    outer loop
      vertex 16 6 28
      vertex 52.5 0 78
      vertex 16 0 28
    endloop
  endfacet
  facet normal 0 0 -1
    outer loop
      vertex 52.5 0 78
      vertex 69.5 6 78
      vertex 69.5 0 78
    endloop
  endfacet
  facet normal -0 0 -1
    outer loop
      vertex 69.5 6 78
      vertex 52.5 0 78
      vertex 52.5 6 78
    endloop
  endfacet
  facet normal 0 0 -1
    outer loop
      vertex 75.5 0 78
      vertex 92.5 6 78
      vertex 92.5 0 78
    endloop
  endfacet
  facet normal -0 0 -1
    outer loop
      vertex 92.5 6 78
      vertex 75.5 0 78
      vertex 75.5 6 78
    endloop
  endfacet
  facet normal -0.807687 0 -0.589612
    outer loop
      vertex 129 0 28
      vertex 92.5 6 78
      vertex 129 6 28
    endloop
  endfacet
  facet normal -0.807687 -0 -0.589612
    outer loop
      vertex 92.5 6 78
      vertex 129 0 28
      vertex 92.5 0 78
    endloop
  endfacet
  facet normal -0 0 1
    outer loop
      vertex 16 6 28
      vertex 69.5 0 28
      vertex 69.5 6 28
    endloop
  endfacet
  facet normal 0 0 1
    outer loop
      vertex 69.5 0 28
      vertex 16 6 28
      vertex 16 0 28
    endloop
  endfacet
  facet normal -0 0 1
    outer loop
      vertex 75.5 6 28
      vertex 129 0 28
      vertex 129 6 28
    endloop
  endfacet
  facet normal 0 0 1
    outer loop
      vertex 129 0 28
      vertex 75.5 6 28
      vertex 75.5 0 28
    endloop
  endfacet
  facet normal 0 -1 0
    outer loop
      vertex 17.5 52 91.6
      vertex 52.5 52 78
      vertex 69.5 52 91.6
    endloop
  endfacet
  facet normal 0 -1 -0
    outer loop
      vertex 17.5 52 91.6
      vertex 16 52 28
      vertex 52.5 52 78
    endloop
  endfacet
  facet normal 0 -1 0
    outer loop
      vertex 0 52 10
      vertex 17.5 52 91.6
      vertex 17.5 52 92
    endloop
  endfacet
  facet normal 0 -1 0
    outer loop
      vertex 17.5 52 91.6
      vertex 0 52 10
      vertex 16 52 28
    endloop
  endfacet
  facet normal 0 -1 0
    outer loop
      vertex 69.5 52 10
      vertex 16 52 28
      vertex 0 52 10
    endloop
  endfacet
  facet normal 0 -1 0
    outer loop
      vertex 16 52 28
      vertex 69.5 52 10
      vertex 69.5 52 28
    endloop
  endfacet
  facet normal 0 -1 -0
    outer loop
      vertex 69.5 52 91.6
      vertex 52.5 52 78
      vertex 69.5 52 78
    endloop
  endfacet
  facet normal 0 -1 0
    outer loop
      vertex 75.5 52 28
      vertex 75.5 52 10
      vertex 129 52 28
    endloop
  endfacet
  facet normal 0 -1 0
    outer loop
      vertex 92.5 52 78
      vertex 75.5 52 91.6
      vertex 75.5 52 78
    endloop
  endfacet
  facet normal 0 -1 0
    outer loop
      vertex 75.5 52 91.6
      vertex 92.5 52 78
      vertex 127.5 52 91.6
    endloop
  endfacet
  facet normal 0 -1 0
    outer loop
      vertex 129 52 28
      vertex 127.5 52 91.6
      vertex 92.5 52 78
    endloop
  endfacet
  facet normal 0 -1 0
    outer loop
      vertex 145 52 10
      vertex 127.5 52 91.6
      vertex 129 52 28
    endloop
  endfacet
  facet normal 0 -1 0
    outer loop
      vertex 127.5 52 91.6
      vertex 145 52 10
      vertex 127.5 52 92
    endloop
  endfacet
  facet normal 0 -1 0
    outer loop
      vertex 145 52 10
      vertex 129 52 28
      vertex 75.5 52 10
    endloop
  endfacet
  facet normal 0.977977 -0 0.208715
    outer loop
      vertex 127.5 52 92
      vertex 145 58 10
      vertex 127.5 58 92
    endloop
  endfacet
  facet normal 0.977977 0 0.208715
    outer loop
      vertex 145 58 10
      vertex 127.5 52 92
      vertex 145 52 10
    endloop
  endfacet
  facet normal -0 0 1
    outer loop
      vertex 21.5 58 102
      vertex 123.5 52 102
      vertex 123.5 58 102
    endloop
  endfacet
  facet normal 0 0 1
    outer loop
      vertex 123.5 52 102
      vertex 21.5 58 102
      vertex 21.5 52 102
    endloop
  endfacet
  facet normal -0.977977 0 0.208715
    outer loop
      vertex 0 52 10
      vertex 17.5 58 92
      vertex 0 58 10
    endloop
  endfacet
  facet normal -0.977977 0 0.208715
    outer loop
      vertex 17.5 58 92
      vertex 0 52 10
      vertex 17.5 52 92
    endloop
  endfacet
  facet normal 0.807687 0 -0.589612
    outer loop
      vertex 52.5 52 78
      vertex 16 58 28
      vertex 52.5 58 78
    endloop
  endfacet
  facet normal 0.807687 0 -0.589612
    outer loop
      vertex 16 58 28
      vertex 52.5 52 78
      vertex 16 52 28
    endloop
  endfacet
  facet normal 0 0 -1
    outer loop
      vertex 52.5 52 78
      vertex 69.5 58 78
      vertex 69.5 52 78
    endloop
  endfacet
  facet normal -0 0 -1
    outer loop
      vertex 69.5 58 78
      vertex 52.5 52 78
      vertex 52.5 58 78
    endloop
  endfacet
  facet normal 0 0 -1
    outer loop
      vertex 75.5 52 78
      vertex 92.5 58 78
      vertex 92.5 52 78
    endloop
  endfacet
  facet normal -0 0 -1
    outer loop
      vertex 92.5 58 78
      vertex 75.5 52 78
      vertex 75.5 58 78
    endloop
  endfacet
  facet normal -0.807687 0 -0.589612
    outer loop
      vertex 129 52 28
      vertex 92.5 58 78
      vertex 129 58 28
    endloop
  endfacet
  facet normal -0.807687 -0 -0.589612
    outer loop
      vertex 92.5 58 78
      vertex 129 52 28
      vertex 92.5 52 78
    endloop
  endfacet
  facet normal -0 0 1
    outer loop
      vertex 16 58 28
      vertex 69.5 52 28
      vertex 69.5 58 28
    endloop
  endfacet
  facet normal 0 0 1
    outer loop
      vertex 69.5 52 28
      vertex 16 58 28
      vertex 16 52 28
    endloop
  endfacet
  facet normal -0 0 1
    outer loop
      vertex 75.5 58 28
      vertex 129 52 28
      vertex 129 58 28
    endloop
  endfacet
  facet normal 0 0 1
    outer loop
      vertex 129 52 28
      vertex 75.5 58 28
      vertex 75.5 52 28
    endloop
  endfacet
  facet normal 1 -0 0
    outer loop
      vertex 75.5 0 78
      vertex 75.5 6 28
      vertex 75.5 6 78
    endloop
  endfacet
  facet normal 1 0 0
    outer loop
      vertex 75.5 6 28
      vertex 75.5 0 78
      vertex 75.5 0 28
    endloop
  endfacet
  facet normal 1 0 0
    outer loop
      vertex 75.5 6 78
      vertex 75.5 52 78
      vertex 75.5 52 91.6
    endloop
  endfacet
  facet normal 1 0 0
    outer loop
      vertex 75.5 52 78
      vertex 75.5 6 78
      vertex 75.5 52 28
    endloop
  endfacet
  facet normal 1 0 0
    outer loop
      vertex 75.5 6 78
      vertex 75.5 52 91.6
      vertex 75.5 6 91.6
    endloop
  endfacet
  facet normal 1 0 0
    outer loop
      vertex 75.5 52 28
      vertex 75.5 6 78
      vertex 75.5 6 28
    endloop
  endfacet
  facet normal 1 0 0
    outer loop
      vertex 75.5 52 28
      vertex 75.5 6 28
      vertex 75.5 52 10
    endloop
  endfacet
  facet normal 1 0 0
    outer loop
      vertex 75.5 52 10
      vertex 75.5 6 28
      vertex 75.5 6 10
    endloop
  endfacet
  facet normal 1 -0 0
    outer loop
      vertex 75.5 52 78
      vertex 75.5 58 28
      vertex 75.5 58 78
    endloop
  endfacet
  facet normal 1 0 0
    outer loop
      vertex 75.5 58 28
      vertex 75.5 52 78
      vertex 75.5 52 28
    endloop
  endfacet
  facet normal -1 0 0
    outer loop
      vertex 69.5 0 28
      vertex 69.5 6 78
      vertex 69.5 6 28
    endloop
  endfacet
  facet normal -1 -0 0
    outer loop
      vertex 69.5 6 78
      vertex 69.5 0 28
      vertex 69.5 0 78
    endloop
  endfacet
  facet normal -1 0 0
    outer loop
      vertex 69.5 6 28
      vertex 69.5 52 28
      vertex 69.5 52 10
    endloop
  endfacet
  facet normal -1 0 0
    outer loop
      vertex 69.5 52 28
      vertex 69.5 6 28
      vertex 69.5 52 78
    endloop
  endfacet
  facet normal -1 0 0
    outer loop
      vertex 69.5 6 28
      vertex 69.5 52 10
      vertex 69.5 6 10
    endloop
  endfacet
  facet normal -1 0 0
    outer loop
      vertex 69.5 6 78
      vertex 69.5 52 78
      vertex 69.5 6 28
    endloop
  endfacet
  facet normal -1 0 0
    outer loop
      vertex 69.5 52 78
      vertex 69.5 6 78
      vertex 69.5 52 91.6
    endloop
  endfacet
  facet normal -1 -0 0
    outer loop
      vertex 69.5 52 91.6
      vertex 69.5 6 78
      vertex 69.5 6 91.6
    endloop
  endfacet
  facet normal -1 0 0
    outer loop
      vertex 69.5 52 28
      vertex 69.5 58 78
      vertex 69.5 58 28
    endloop
  endfacet
  facet normal -1 -0 0
    outer loop
      vertex 69.5 58 78
      vertex 69.5 52 28
      vertex 69.5 52 78
    endloop
  endfacet
  facet normal -0.980724 -0.195397 0
    outer loop
      vertex 52.7308 29.2937 91.6
      vertex 52.6733 29.5823 102
      vertex 52.6733 29.5823 91.6
    endloop
  endfacet
  facet normal -0.980724 -0.195397 0
    outer loop
      vertex 52.6733 29.5823 102
      vertex 52.7308 29.2937 91.6
      vertex 52.7308 29.2937 102
    endloop
  endfacet
  facet normal -0.99787 -0.0652336 0
    outer loop
      vertex 52.75 29 91.6
      vertex 52.7308 29.2937 102
      vertex 52.7308 29.2937 91.6
    endloop
  endfacet
  facet normal -0.99787 -0.0652336 0
    outer loop
      vertex 52.7308 29.2937 102
      vertex 52.75 29 91.6
      vertex 52.75 29 102
    endloop
  endfacet
  facet normal -0.946936 -0.321421 0
    outer loop
      vertex 52.6733 29.5823 91.6
      vertex 52.5787 29.861 102
      vertex 52.5787 29.861 91.6
    endloop
  endfacet
  facet normal -0.946936 -0.321421 0
    outer loop
      vertex 52.5787 29.861 102
      vertex 52.6733 29.5823 91.6
      vertex 52.6733 29.5823 102
    endloop
  endfacet
  facet normal 0.555797 -0.831318 0
    outer loop
      vertex 49.1303 30.785 91.6
      vertex 49.375 30.9486 102
      vertex 49.1303 30.785 102
    endloop
  endfacet
  facet normal 0.555797 -0.831318 0
    outer loop
      vertex 49.375 30.9486 102
      vertex 49.1303 30.785 91.6
      vertex 49.375 30.9486 91.6
    endloop
  endfacet
  facet normal 0.321421 -0.946936 0
    outer loop
      vertex 49.639 31.0787 91.6
      vertex 49.9177 31.1733 102
      vertex 49.639 31.0787 102
    endloop
  endfacet
  facet normal 0.321421 -0.946936 0
    outer loop
      vertex 49.9177 31.1733 102
      vertex 49.639 31.0787 91.6
      vertex 49.9177 31.1733 91.6
    endloop
  endfacet
  facet normal -0.659202 0.751966 0
    outer loop
      vertex 52.091 27.409 91.6
      vertex 51.8697 27.215 102
      vertex 52.091 27.409 102
    endloop
  endfacet
  facet normal -0.659202 0.751966 0
    outer loop
      vertex 51.8697 27.215 102
      vertex 52.091 27.409 91.6
      vertex 51.8697 27.215 91.6
    endloop
  endfacet
  facet normal 0.321421 0.946936 -0
    outer loop
      vertex 49.9177 26.8267 91.6
      vertex 49.639 26.9213 102
      vertex 49.9177 26.8267 102
    endloop
  endfacet
  facet normal 0.321421 0.946936 0
    outer loop
      vertex 49.639 26.9213 102
      vertex 49.9177 26.8267 91.6
      vertex 49.639 26.9213 91.6
    endloop
  endfacet
  facet normal -0.896995 -0.442042 0
    outer loop
      vertex 52.5787 29.861 91.6
      vertex 52.4486 30.125 102
      vertex 52.4486 30.125 91.6
    endloop
  endfacet
  facet normal -0.896995 -0.442042 0
    outer loop
      vertex 52.4486 30.125 102
      vertex 52.5787 29.861 91.6
      vertex 52.5787 29.861 102
    endloop
  endfacet
  facet normal -0.442042 -0.896995 0
    outer loop
      vertex 51.361 31.0787 91.6
      vertex 51.625 30.9486 102
      vertex 51.361 31.0787 102
    endloop
  endfacet
  facet normal -0.442042 -0.896995 -0
    outer loop
      vertex 51.625 30.9486 102
      vertex 51.361 31.0787 91.6
      vertex 51.625 30.9486 91.6
    endloop
  endfacet
  facet normal 0.980724 0.195397 0
    outer loop
      vertex 48.3267 28.4177 102
      vertex 48.2692 28.7063 91.6
      vertex 48.2692 28.7063 102
    endloop
  endfacet
  facet normal 0.980724 0.195397 0
    outer loop
      vertex 48.2692 28.7063 91.6
      vertex 48.3267 28.4177 102
      vertex 48.3267 28.4177 91.6
    endloop
  endfacet
  facet normal 0.751966 -0.659202 0
    outer loop
      vertex 48.715 30.3697 102
      vertex 48.909 30.591 91.6
      vertex 48.909 30.591 102
    endloop
  endfacet
  facet normal 0.751966 -0.659202 0
    outer loop
      vertex 48.909 30.591 91.6
      vertex 48.715 30.3697 102
      vertex 48.715 30.3697 91.6
    endloop
  endfacet
  facet normal 0.442042 0.896995 -0
    outer loop
      vertex 49.639 26.9213 91.6
      vertex 49.375 27.0514 102
      vertex 49.639 26.9213 102
    endloop
  endfacet
  facet normal 0.442042 0.896995 0
    outer loop
      vertex 49.375 27.0514 102
      vertex 49.639 26.9213 91.6
      vertex 49.375 27.0514 91.6
    endloop
  endfacet
  facet normal 0.751966 0.659202 0
    outer loop
      vertex 48.909 27.409 102
      vertex 48.715 27.6303 91.6
      vertex 48.715 27.6303 102
    endloop
  endfacet
  facet normal 0.751966 0.659202 0
    outer loop
      vertex 48.715 27.6303 91.6
      vertex 48.909 27.409 102
      vertex 48.909 27.409 91.6
    endloop
  endfacet
  facet normal -0.321421 0.946936 0
    outer loop
      vertex 51.361 26.9213 91.6
      vertex 51.0823 26.8267 102
      vertex 51.361 26.9213 102
    endloop
  endfacet
  facet normal -0.321421 0.946936 0
    outer loop
      vertex 51.0823 26.8267 102
      vertex 51.361 26.9213 91.6
      vertex 51.0823 26.8267 91.6
    endloop
  endfacet
  facet normal -0.980724 0.195397 0
    outer loop
      vertex 52.6733 28.4177 91.6
      vertex 52.7308 28.7063 102
      vertex 52.7308 28.7063 91.6
    endloop
  endfacet
  facet normal -0.980724 0.195397 0
    outer loop
      vertex 52.7308 28.7063 102
      vertex 52.6733 28.4177 91.6
      vertex 52.6733 28.4177 102
    endloop
  endfacet
  facet normal 0.0652336 -0.99787 0
    outer loop
      vertex 50.2063 31.2308 91.6
      vertex 50.5 31.25 102
      vertex 50.2063 31.2308 102
    endloop
  endfacet
  facet normal 0.0652336 -0.99787 0
    outer loop
      vertex 50.5 31.25 102
      vertex 50.2063 31.2308 91.6
      vertex 50.5 31.25 91.6
    endloop
  endfacet
  facet normal 0.946936 0.321421 0
    outer loop
      vertex 48.4213 28.139 102
      vertex 48.3267 28.4177 91.6
      vertex 48.3267 28.4177 102
    endloop
  endfacet
  facet normal 0.946936 0.321421 0
    outer loop
      vertex 48.3267 28.4177 91.6
      vertex 48.4213 28.139 102
      vertex 48.4213 28.139 91.6
    endloop
  endfacet
  facet normal 0.659202 0.751966 -0
    outer loop
      vertex 49.1303 27.215 91.6
      vertex 48.909 27.409 102
      vertex 49.1303 27.215 102
    endloop
  endfacet
  facet normal 0.659202 0.751966 0
    outer loop
      vertex 48.909 27.409 102
      vertex 49.1303 27.215 91.6
      vertex 48.909 27.409 91.6
    endloop
  endfacet
  facet normal -0.555797 -0.831318 0
    outer loop
      vertex 51.625 30.9486 91.6
      vertex 51.8697 30.785 102
      vertex 51.625 30.9486 102
    endloop
  endfacet
  facet normal -0.555797 -0.831318 -0
    outer loop
      vertex 51.8697 30.785 102
      vertex 51.625 30.9486 91.6
      vertex 51.8697 30.785 91.6
    endloop
  endfacet
  facet normal -0.946936 0.321421 0
    outer loop
      vertex 52.5787 28.139 91.6
      vertex 52.6733 28.4177 102
      vertex 52.6733 28.4177 91.6
    endloop
  endfacet
  facet normal -0.946936 0.321421 0
    outer loop
      vertex 52.6733 28.4177 102
      vertex 52.5787 28.139 91.6
      vertex 52.5787 28.139 102
    endloop
  endfacet
  facet normal -0.442042 0.896995 0
    outer loop
      vertex 51.625 27.0514 91.6
      vertex 51.361 26.9213 102
      vertex 51.625 27.0514 102
    endloop
  endfacet
  facet normal -0.442042 0.896995 0
    outer loop
      vertex 51.361 26.9213 102
      vertex 51.625 27.0514 91.6
      vertex 51.361 26.9213 91.6
    endloop
  endfacet
  facet normal 0.980724 -0.195397 0
    outer loop
      vertex 48.2692 29.2937 102
      vertex 48.3267 29.5823 91.6
      vertex 48.3267 29.5823 102
    endloop
  endfacet
  facet normal 0.980724 -0.195397 0
    outer loop
      vertex 48.3267 29.5823 91.6
      vertex 48.2692 29.2937 102
      vertex 48.2692 29.2937 91.6
    endloop
  endfacet
  facet normal -0.195397 0.980724 0
    outer loop
      vertex 51.0823 26.8267 91.6
      vertex 50.7937 26.7692 102
      vertex 51.0823 26.8267 102
    endloop
  endfacet
  facet normal -0.195397 0.980724 0
    outer loop
      vertex 50.7937 26.7692 102
      vertex 51.0823 26.8267 91.6
      vertex 50.7937 26.7692 91.6
    endloop
  endfacet
  facet normal 0.831318 0.555797 0
    outer loop
      vertex 48.715 27.6303 102
      vertex 48.5514 27.875 91.6
      vertex 48.5514 27.875 102
    endloop
  endfacet
  facet normal 0.831318 0.555797 0
    outer loop
      vertex 48.5514 27.875 91.6
      vertex 48.715 27.6303 102
      vertex 48.715 27.6303 91.6
    endloop
  endfacet
  facet normal 0.946936 -0.321421 0
    outer loop
      vertex 48.3267 29.5823 102
      vertex 48.4213 29.861 91.6
      vertex 48.4213 29.861 102
    endloop
  endfacet
  facet normal 0.946936 -0.321421 0
    outer loop
      vertex 48.4213 29.861 91.6
      vertex 48.3267 29.5823 102
      vertex 48.3267 29.5823 91.6
    endloop
  endfacet
  facet normal 0.0652336 0.99787 -0
    outer loop
      vertex 50.5 26.75 91.6
      vertex 50.2063 26.7692 102
      vertex 50.5 26.75 102
    endloop
  endfacet
  facet normal 0.0652336 0.99787 0
    outer loop
      vertex 50.2063 26.7692 102
      vertex 50.5 26.75 91.6
      vertex 50.2063 26.7692 91.6
    endloop
  endfacet
  facet normal -0.831318 -0.555797 0
    outer loop
      vertex 52.4486 30.125 91.6
      vertex 52.285 30.3697 102
      vertex 52.285 30.3697 91.6
    endloop
  endfacet
  facet normal -0.831318 -0.555797 0
    outer loop
      vertex 52.285 30.3697 102
      vertex 52.4486 30.125 91.6
      vertex 52.4486 30.125 102
    endloop
  endfacet
  facet normal -0.321421 -0.946936 0
    outer loop
      vertex 51.0823 31.1733 91.6
      vertex 51.361 31.0787 102
      vertex 51.0823 31.1733 102
    endloop
  endfacet
  facet normal -0.321421 -0.946936 -0
    outer loop
      vertex 51.361 31.0787 102
      vertex 51.0823 31.1733 91.6
      vertex 51.361 31.0787 91.6
    endloop
  endfacet
  facet normal 0.195397 -0.980724 0
    outer loop
      vertex 49.9177 31.1733 91.6
      vertex 50.2063 31.2308 102
      vertex 49.9177 31.1733 102
    endloop
  endfacet
  facet normal 0.195397 -0.980724 0
    outer loop
      vertex 50.2063 31.2308 102
      vertex 49.9177 31.1733 91.6
      vertex 50.2063 31.2308 91.6
    endloop
  endfacet
  facet normal -0.751966 -0.659202 0
    outer loop
      vertex 52.285 30.3697 91.6
      vertex 52.091 30.591 102
      vertex 52.091 30.591 91.6
    endloop
  endfacet
  facet normal -0.751966 -0.659202 0
    outer loop
      vertex 52.091 30.591 102
      vertex 52.285 30.3697 91.6
      vertex 52.285 30.3697 102
    endloop
  endfacet
  facet normal -0.99787 0.0652336 0
    outer loop
      vertex 52.7308 28.7063 91.6
      vertex 52.75 29 102
      vertex 52.75 29 91.6
    endloop
  endfacet
  facet normal -0.99787 0.0652336 0
    outer loop
      vertex 52.75 29 102
      vertex 52.7308 28.7063 91.6
      vertex 52.7308 28.7063 102
    endloop
  endfacet
  facet normal -0.659202 -0.751966 0
    outer loop
      vertex 51.8697 30.785 91.6
      vertex 52.091 30.591 102
      vertex 51.8697 30.785 102
    endloop
  endfacet
  facet normal -0.659202 -0.751966 -0
    outer loop
      vertex 52.091 30.591 102
      vertex 51.8697 30.785 91.6
      vertex 52.091 30.591 91.6
    endloop
  endfacet
  facet normal -0.896995 0.442042 0
    outer loop
      vertex 52.4486 27.875 91.6
      vertex 52.5787 28.139 102
      vertex 52.5787 28.139 91.6
    endloop
  endfacet
  facet normal -0.896995 0.442042 0
    outer loop
      vertex 52.5787 28.139 102
      vertex 52.4486 27.875 91.6
      vertex 52.4486 27.875 102
    endloop
  endfacet
  facet normal -0.555797 0.831318 0
    outer loop
      vertex 51.8697 27.215 91.6
      vertex 51.625 27.0514 102
      vertex 51.8697 27.215 102
    endloop
  endfacet
  facet normal -0.555797 0.831318 0
    outer loop
      vertex 51.625 27.0514 102
      vertex 51.8697 27.215 91.6
      vertex 51.625 27.0514 91.6
    endloop
  endfacet
  facet normal 0.555797 0.831318 -0
    outer loop
      vertex 49.375 27.0514 91.6
      vertex 49.1303 27.215 102
      vertex 49.375 27.0514 102
    endloop
  endfacet
  facet normal 0.555797 0.831318 0
    outer loop
      vertex 49.1303 27.215 102
      vertex 49.375 27.0514 91.6
      vertex 49.1303 27.215 91.6
    endloop
  endfacet
  facet normal 0.442042 -0.896995 0
    outer loop
      vertex 49.375 30.9486 91.6
      vertex 49.639 31.0787 102
      vertex 49.375 30.9486 102
    endloop
  endfacet
  facet normal 0.442042 -0.896995 0
    outer loop
      vertex 49.639 31.0787 102
      vertex 49.375 30.9486 91.6
      vertex 49.639 31.0787 91.6
    endloop
  endfacet
  facet normal 0.831318 -0.555797 0
    outer loop
      vertex 48.5514 30.125 102
      vertex 48.715 30.3697 91.6
      vertex 48.715 30.3697 102
    endloop
  endfacet
  facet normal 0.831318 -0.555797 0
    outer loop
      vertex 48.715 30.3697 91.6
      vertex 48.5514 30.125 102
      vertex 48.5514 30.125 91.6
    endloop
  endfacet
  facet normal 0.896995 -0.442042 0
    outer loop
      vertex 48.4213 29.861 102
      vertex 48.5514 30.125 91.6
      vertex 48.5514 30.125 102
    endloop
  endfacet
  facet normal 0.896995 -0.442042 0
    outer loop
      vertex 48.5514 30.125 91.6
      vertex 48.4213 29.861 102
      vertex 48.4213 29.861 91.6
    endloop
  endfacet
  facet normal 0.896995 0.442042 0
    outer loop
      vertex 48.5514 27.875 102
      vertex 48.4213 28.139 91.6
      vertex 48.4213 28.139 102
    endloop
  endfacet
  facet normal 0.896995 0.442042 0
    outer loop
      vertex 48.4213 28.139 91.6
      vertex 48.5514 27.875 102
      vertex 48.5514 27.875 91.6
    endloop
  endfacet
  facet normal -0.751966 0.659202 0
    outer loop
      vertex 52.091 27.409 91.6
      vertex 52.285 27.6303 102
      vertex 52.285 27.6303 91.6
    endloop
  endfacet
  facet normal -0.751966 0.659202 0
    outer loop
      vertex 52.285 27.6303 102
      vertex 52.091 27.409 91.6
      vertex 52.091 27.409 102
    endloop
  endfacet
  facet normal -0.0652336 0.99787 0
    outer loop
      vertex 50.7937 26.7692 91.6
      vertex 50.5 26.75 102
      vertex 50.7937 26.7692 102
    endloop
  endfacet
  facet normal -0.0652336 0.99787 0
    outer loop
      vertex 50.5 26.75 102
      vertex 50.7937 26.7692 91.6
      vertex 50.5 26.75 91.6
    endloop
  endfacet
  facet normal 0.195397 0.980724 -0
    outer loop
      vertex 50.2063 26.7692 91.6
      vertex 49.9177 26.8267 102
      vertex 50.2063 26.7692 102
    endloop
  endfacet
  facet normal 0.195397 0.980724 0
    outer loop
      vertex 49.9177 26.8267 102
      vertex 50.2063 26.7692 91.6
      vertex 49.9177 26.8267 91.6
    endloop
  endfacet
  facet normal -0.831318 0.555797 0
    outer loop
      vertex 52.285 27.6303 91.6
      vertex 52.4486 27.875 102
      vertex 52.4486 27.875 91.6
    endloop
  endfacet
  facet normal -0.831318 0.555797 0
    outer loop
      vertex 52.4486 27.875 102
      vertex 52.285 27.6303 91.6
      vertex 52.285 27.6303 102
    endloop
  endfacet
  facet normal -0.0652336 -0.99787 0
    outer loop
      vertex 50.5 31.25 91.6
      vertex 50.7937 31.2308 102
      vertex 50.5 31.25 102
    endloop
  endfacet
  facet normal -0.0652336 -0.99787 -0
    outer loop
      vertex 50.7937 31.2308 102
      vertex 50.5 31.25 91.6
      vertex 50.7937 31.2308 91.6
    endloop
  endfacet
  facet normal 0.99787 0.0652336 0
    outer loop
      vertex 48.2692 28.7063 102
      vertex 48.25 29 91.6
      vertex 48.25 29 102
    endloop
  endfacet
  facet normal 0.99787 0.0652336 0
    outer loop
      vertex 48.25 29 91.6
      vertex 48.2692 28.7063 102
      vertex 48.2692 28.7063 91.6
    endloop
  endfacet
  facet normal 0.99787 -0.0652336 0
    outer loop
      vertex 48.25 29 102
      vertex 48.2692 29.2937 91.6
      vertex 48.2692 29.2937 102
    endloop
  endfacet
  facet normal 0.99787 -0.0652336 0
    outer loop
      vertex 48.2692 29.2937 91.6
      vertex 48.25 29 102
      vertex 48.25 29 91.6
    endloop
  endfacet
  facet normal -0.195397 -0.980724 0
    outer loop
      vertex 50.7937 31.2308 91.6
      vertex 51.0823 31.1733 102
      vertex 50.7937 31.2308 102
    endloop
  endfacet
  facet normal -0.195397 -0.980724 -0
    outer loop
      vertex 51.0823 31.1733 102
      vertex 50.7937 31.2308 91.6
      vertex 51.0823 31.1733 91.6
    endloop
  endfacet
  facet normal 0.659202 -0.751966 0
    outer loop
      vertex 48.909 30.591 91.6
      vertex 49.1303 30.785 102
      vertex 48.909 30.591 102
    endloop
  endfacet
  facet normal 0.659202 -0.751966 0
    outer loop
      vertex 49.1303 30.785 102
      vertex 48.909 30.591 91.6
      vertex 49.1303 30.785 91.6
    endloop
  endfacet
  facet normal -0.980724 -0.195397 0
    outer loop
      vertex 96.7308 29.2937 91.6
      vertex 96.6733 29.5823 102
      vertex 96.6733 29.5823 91.6
    endloop
  endfacet
  facet normal -0.980724 -0.195397 0
    outer loop
      vertex 96.6733 29.5823 102
      vertex 96.7308 29.2937 91.6
      vertex 96.7308 29.2937 102
    endloop
  endfacet
  facet normal -0.99787 -0.0652336 0
    outer loop
      vertex 96.75 29 91.6
      vertex 96.7308 29.2937 102
      vertex 96.7308 29.2937 91.6
    endloop
  endfacet
  facet normal -0.99787 -0.0652336 0
    outer loop
      vertex 96.7308 29.2937 102
      vertex 96.75 29 91.6
      vertex 96.75 29 102
    endloop
  endfacet
  facet normal -0.946936 -0.321421 0
    outer loop
      vertex 96.6733 29.5823 91.6
      vertex 96.5787 29.861 102
      vertex 96.5787 29.861 91.6
    endloop
  endfacet
  facet normal -0.946936 -0.321421 0
    outer loop
      vertex 96.5787 29.861 102
      vertex 96.6733 29.5823 91.6
      vertex 96.6733 29.5823 102
    endloop
  endfacet
  facet normal 0.555797 -0.831318 0
    outer loop
      vertex 93.1303 30.785 91.6
      vertex 93.375 30.9486 102
      vertex 93.1303 30.785 102
    endloop
  endfacet
  facet normal 0.555797 -0.831318 0
    outer loop
      vertex 93.375 30.9486 102
      vertex 93.1303 30.785 91.6
      vertex 93.375 30.9486 91.6
    endloop
  endfacet
  facet normal 0.321421 -0.946936 0
    outer loop
      vertex 93.639 31.0787 91.6
      vertex 93.9177 31.1733 102
      vertex 93.639 31.0787 102
    endloop
  endfacet
  facet normal 0.321421 -0.946936 0
    outer loop
      vertex 93.9177 31.1733 102
      vertex 93.639 31.0787 91.6
      vertex 93.9177 31.1733 91.6
    endloop
  endfacet
  facet normal -0.659202 0.751966 0
    outer loop
      vertex 96.091 27.409 91.6
      vertex 95.8697 27.215 102
      vertex 96.091 27.409 102
    endloop
  endfacet
  facet normal -0.659202 0.751966 0
    outer loop
      vertex 95.8697 27.215 102
      vertex 96.091 27.409 91.6
      vertex 95.8697 27.215 91.6
    endloop
  endfacet
  facet normal 0.321421 0.946936 -0
    outer loop
      vertex 93.9177 26.8267 91.6
      vertex 93.639 26.9213 102
      vertex 93.9177 26.8267 102
    endloop
  endfacet
  facet normal 0.321421 0.946936 0
    outer loop
      vertex 93.639 26.9213 102
      vertex 93.9177 26.8267 91.6
      vertex 93.639 26.9213 91.6
    endloop
  endfacet
  facet normal -0.896995 -0.442042 0
    outer loop
      vertex 96.5787 29.861 91.6
      vertex 96.4486 30.125 102
      vertex 96.4486 30.125 91.6
    endloop
  endfacet
  facet normal -0.896995 -0.442042 0
    outer loop
      vertex 96.4486 30.125 102
      vertex 96.5787 29.861 91.6
      vertex 96.5787 29.861 102
    endloop
  endfacet
  facet normal -0.442042 -0.896995 0
    outer loop
      vertex 95.361 31.0787 91.6
      vertex 95.625 30.9486 102
      vertex 95.361 31.0787 102
    endloop
  endfacet
  facet normal -0.442042 -0.896995 -0
    outer loop
      vertex 95.625 30.9486 102
      vertex 95.361 31.0787 91.6
      vertex 95.625 30.9486 91.6
    endloop
  endfacet
  facet normal 0.980724 0.195397 0
    outer loop
      vertex 92.3267 28.4177 102
      vertex 92.2692 28.7063 91.6
      vertex 92.2692 28.7063 102
    endloop
  endfacet
  facet normal 0.980724 0.195397 0
    outer loop
      vertex 92.2692 28.7063 91.6
      vertex 92.3267 28.4177 102
      vertex 92.3267 28.4177 91.6
    endloop
  endfacet
  facet normal 0.751966 -0.659202 0
    outer loop
      vertex 92.715 30.3697 102
      vertex 92.909 30.591 91.6
      vertex 92.909 30.591 102
    endloop
  endfacet
  facet normal 0.751966 -0.659202 0
    outer loop
      vertex 92.909 30.591 91.6
      vertex 92.715 30.3697 102
      vertex 92.715 30.3697 91.6
    endloop
  endfacet
  facet normal 0.442042 0.896995 -0
    outer loop
      vertex 93.639 26.9213 91.6
      vertex 93.375 27.0514 102
      vertex 93.639 26.9213 102
    endloop
  endfacet
  facet normal 0.442042 0.896995 0
    outer loop
      vertex 93.375 27.0514 102
      vertex 93.639 26.9213 91.6
      vertex 93.375 27.0514 91.6
    endloop
  endfacet
  facet normal 0.751966 0.659202 0
    outer loop
      vertex 92.909 27.409 102
      vertex 92.715 27.6303 91.6
      vertex 92.715 27.6303 102
    endloop
  endfacet
  facet normal 0.751966 0.659202 0
    outer loop
      vertex 92.715 27.6303 91.6
      vertex 92.909 27.409 102
      vertex 92.909 27.409 91.6
    endloop
  endfacet
  facet normal -0.321421 0.946936 0
    outer loop
      vertex 95.361 26.9213 91.6
      vertex 95.0823 26.8267 102
      vertex 95.361 26.9213 102
    endloop
  endfacet
  facet normal -0.321421 0.946936 0
    outer loop
      vertex 95.0823 26.8267 102
      vertex 95.361 26.9213 91.6
      vertex 95.0823 26.8267 91.6
    endloop
  endfacet
  facet normal -0.980724 0.195397 0
    outer loop
      vertex 96.6733 28.4177 91.6
      vertex 96.7308 28.7063 102
      vertex 96.7308 28.7063 91.6
    endloop
  endfacet
  facet normal -0.980724 0.195397 0
    outer loop
      vertex 96.7308 28.7063 102
      vertex 96.6733 28.4177 91.6
      vertex 96.6733 28.4177 102
    endloop
  endfacet
  facet normal 0.0652336 -0.99787 0
    outer loop
      vertex 94.2063 31.2308 91.6
      vertex 94.5 31.25 102
      vertex 94.2063 31.2308 102
    endloop
  endfacet
  facet normal 0.0652336 -0.99787 0
    outer loop
      vertex 94.5 31.25 102
      vertex 94.2063 31.2308 91.6
      vertex 94.5 31.25 91.6
    endloop
  endfacet
  facet normal 0.946936 0.321421 0
    outer loop
      vertex 92.4213 28.139 102
      vertex 92.3267 28.4177 91.6
      vertex 92.3267 28.4177 102
    endloop
  endfacet
  facet normal 0.946936 0.321421 0
    outer loop
      vertex 92.3267 28.4177 91.6
      vertex 92.4213 28.139 102
      vertex 92.4213 28.139 91.6
    endloop
  endfacet
  facet normal 0.659202 0.751966 -0
    outer loop
      vertex 93.1303 27.215 91.6
      vertex 92.909 27.409 102
      vertex 93.1303 27.215 102
    endloop
  endfacet
  facet normal 0.659202 0.751966 0
    outer loop
      vertex 92.909 27.409 102
      vertex 93.1303 27.215 91.6
      vertex 92.909 27.409 91.6
    endloop
  endfacet
  facet normal -0.555797 -0.831318 0
    outer loop
      vertex 95.625 30.9486 91.6
      vertex 95.8697 30.785 102
      vertex 95.625 30.9486 102
    endloop
  endfacet
  facet normal -0.555797 -0.831318 -0
    outer loop
      vertex 95.8697 30.785 102
      vertex 95.625 30.9486 91.6
      vertex 95.8697 30.785 91.6
    endloop
  endfacet
  facet normal -0.946936 0.321421 0
    outer loop
      vertex 96.5787 28.139 91.6
      vertex 96.6733 28.4177 102
      vertex 96.6733 28.4177 91.6
    endloop
  endfacet
  facet normal -0.946936 0.321421 0
    outer loop
      vertex 96.6733 28.4177 102
      vertex 96.5787 28.139 91.6
      vertex 96.5787 28.139 102
    endloop
  endfacet
  facet normal -0.442042 0.896995 0
    outer loop
      vertex 95.625 27.0514 91.6
      vertex 95.361 26.9213 102
      vertex 95.625 27.0514 102
    endloop
  endfacet
  facet normal -0.442042 0.896995 0
    outer loop
      vertex 95.361 26.9213 102
      vertex 95.625 27.0514 91.6
      vertex 95.361 26.9213 91.6
    endloop
  endfacet
  facet normal 0.980724 -0.195397 0
    outer loop
      vertex 92.2692 29.2937 102
      vertex 92.3267 29.5823 91.6
      vertex 92.3267 29.5823 102
    endloop
  endfacet
  facet normal 0.980724 -0.195397 0
    outer loop
      vertex 92.3267 29.5823 91.6
      vertex 92.2692 29.2937 102
      vertex 92.2692 29.2937 91.6
    endloop
  endfacet
  facet normal -0.195397 0.980724 0
    outer loop
      vertex 95.0823 26.8267 91.6
      vertex 94.7937 26.7692 102
      vertex 95.0823 26.8267 102
    endloop
  endfacet
  facet normal -0.195397 0.980724 0
    outer loop
      vertex 94.7937 26.7692 102
      vertex 95.0823 26.8267 91.6
      vertex 94.7937 26.7692 91.6
    endloop
  endfacet
  facet normal 0.831318 0.555797 0
    outer loop
      vertex 92.715 27.6303 102
      vertex 92.5514 27.875 91.6
      vertex 92.5514 27.875 102
    endloop
  endfacet
  facet normal 0.831318 0.555797 0
    outer loop
      vertex 92.5514 27.875 91.6
      vertex 92.715 27.6303 102
      vertex 92.715 27.6303 91.6
    endloop
  endfacet
  facet normal 0.946936 -0.321421 0
    outer loop
      vertex 92.3267 29.5823 102
      vertex 92.4213 29.861 91.6
      vertex 92.4213 29.861 102
    endloop
  endfacet
  facet normal 0.946936 -0.321421 0
    outer loop
      vertex 92.4213 29.861 91.6
      vertex 92.3267 29.5823 102
      vertex 92.3267 29.5823 91.6
    endloop
  endfacet
  facet normal 0.0652336 0.99787 -0
    outer loop
      vertex 94.5 26.75 91.6
      vertex 94.2063 26.7692 102
      vertex 94.5 26.75 102
    endloop
  endfacet
  facet normal 0.0652336 0.99787 0
    outer loop
      vertex 94.2063 26.7692 102
      vertex 94.5 26.75 91.6
      vertex 94.2063 26.7692 91.6
    endloop
  endfacet
  facet normal -0.831318 -0.555797 0
    outer loop
      vertex 96.4486 30.125 91.6
      vertex 96.285 30.3697 102
      vertex 96.285 30.3697 91.6
    endloop
  endfacet
  facet normal -0.831318 -0.555797 0
    outer loop
      vertex 96.285 30.3697 102
      vertex 96.4486 30.125 91.6
      vertex 96.4486 30.125 102
    endloop
  endfacet
  facet normal -0.321421 -0.946936 0
    outer loop
      vertex 95.0823 31.1733 91.6
      vertex 95.361 31.0787 102
      vertex 95.0823 31.1733 102
    endloop
  endfacet
  facet normal -0.321421 -0.946936 -0
    outer loop
      vertex 95.361 31.0787 102
      vertex 95.0823 31.1733 91.6
      vertex 95.361 31.0787 91.6
    endloop
  endfacet
  facet normal 0.195397 -0.980724 0
    outer loop
      vertex 93.9177 31.1733 91.6
      vertex 94.2063 31.2308 102
      vertex 93.9177 31.1733 102
    endloop
  endfacet
  facet normal 0.195397 -0.980724 0
    outer loop
      vertex 94.2063 31.2308 102
      vertex 93.9177 31.1733 91.6
      vertex 94.2063 31.2308 91.6
    endloop
  endfacet
  facet normal -0.751966 -0.659202 0
    outer loop
      vertex 96.285 30.3697 91.6
      vertex 96.091 30.591 102
      vertex 96.091 30.591 91.6
    endloop
  endfacet
  facet normal -0.751966 -0.659202 0
    outer loop
      vertex 96.091 30.591 102
      vertex 96.285 30.3697 91.6
      vertex 96.285 30.3697 102
    endloop
  endfacet
  facet normal -0.99787 0.0652336 0
    outer loop
      vertex 96.7308 28.7063 91.6
      vertex 96.75 29 102
      vertex 96.75 29 91.6
    endloop
  endfacet
  facet normal -0.99787 0.0652336 0
    outer loop
      vertex 96.75 29 102
      vertex 96.7308 28.7063 91.6
      vertex 96.7308 28.7063 102
    endloop
  endfacet
  facet normal -0.659202 -0.751966 0
    outer loop
      vertex 95.8697 30.785 91.6
      vertex 96.091 30.591 102
      vertex 95.8697 30.785 102
    endloop
  endfacet
  facet normal -0.659202 -0.751966 -0
    outer loop
      vertex 96.091 30.591 102
      vertex 95.8697 30.785 91.6
      vertex 96.091 30.591 91.6
    endloop
  endfacet
  facet normal -0.896995 0.442042 0
    outer loop
      vertex 96.4486 27.875 91.6
      vertex 96.5787 28.139 102
      vertex 96.5787 28.139 91.6
    endloop
  endfacet
  facet normal -0.896995 0.442042 0
    outer loop
      vertex 96.5787 28.139 102
      vertex 96.4486 27.875 91.6
      vertex 96.4486 27.875 102
    endloop
  endfacet
  facet normal -0.555797 0.831318 0
    outer loop
      vertex 95.8697 27.215 91.6
      vertex 95.625 27.0514 102
      vertex 95.8697 27.215 102
    endloop
  endfacet
  facet normal -0.555797 0.831318 0
    outer loop
      vertex 95.625 27.0514 102
      vertex 95.8697 27.215 91.6
      vertex 95.625 27.0514 91.6
    endloop
  endfacet
  facet normal 0.555797 0.831318 -0
    outer loop
      vertex 93.375 27.0514 91.6
      vertex 93.1303 27.215 102
      vertex 93.375 27.0514 102
    endloop
  endfacet
  facet normal 0.555797 0.831318 0
    outer loop
      vertex 93.1303 27.215 102
      vertex 93.375 27.0514 91.6
      vertex 93.1303 27.215 91.6
    endloop
  endfacet
  facet normal 0.442042 -0.896995 0
    outer loop
      vertex 93.375 30.9486 91.6
      vertex 93.639 31.0787 102
      vertex 93.375 30.9486 102
    endloop
  endfacet
  facet normal 0.442042 -0.896995 0
    outer loop
      vertex 93.639 31.0787 102
      vertex 93.375 30.9486 91.6
      vertex 93.639 31.0787 91.6
    endloop
  endfacet
  facet normal 0.831318 -0.555797 0
    outer loop
      vertex 92.5514 30.125 102
      vertex 92.715 30.3697 91.6
      vertex 92.715 30.3697 102
    endloop
  endfacet
  facet normal 0.831318 -0.555797 0
    outer loop
      vertex 92.715 30.3697 91.6
      vertex 92.5514 30.125 102
      vertex 92.5514 30.125 91.6
    endloop
  endfacet
  facet normal 0.896995 -0.442042 0
    outer loop
      vertex 92.4213 29.861 102
      vertex 92.5514 30.125 91.6
      vertex 92.5514 30.125 102
    endloop
  endfacet
  facet normal 0.896995 -0.442042 0
    outer loop
      vertex 92.5514 30.125 91.6
      vertex 92.4213 29.861 102
      vertex 92.4213 29.861 91.6
    endloop
  endfacet
  facet normal 0.896995 0.442042 0
    outer loop
      vertex 92.5514 27.875 102
      vertex 92.4213 28.139 91.6
      vertex 92.4213 28.139 102
    endloop
  endfacet
  facet normal 0.896995 0.442042 0
    outer loop
      vertex 92.4213 28.139 91.6
      vertex 92.5514 27.875 102
      vertex 92.5514 27.875 91.6
    endloop
  endfacet
  facet normal -0.751966 0.659202 0
    outer loop
      vertex 96.091 27.409 91.6
      vertex 96.285 27.6303 102
      vertex 96.285 27.6303 91.6
    endloop
  endfacet
  facet normal -0.751966 0.659202 0
    outer loop
      vertex 96.285 27.6303 102
      vertex 96.091 27.409 91.6
      vertex 96.091 27.409 102
    endloop
  endfacet
  facet normal -0.0652336 0.99787 0
    outer loop
      vertex 94.7937 26.7692 91.6
      vertex 94.5 26.75 102
      vertex 94.7937 26.7692 102
    endloop
  endfacet
  facet normal -0.0652336 0.99787 0
    outer loop
      vertex 94.5 26.75 102
      vertex 94.7937 26.7692 91.6
      vertex 94.5 26.75 91.6
    endloop
  endfacet
  facet normal 0.195397 0.980724 -0
    outer loop
      vertex 94.2063 26.7692 91.6
      vertex 93.9177 26.8267 102
      vertex 94.2063 26.7692 102
    endloop
  endfacet
  facet normal 0.195397 0.980724 0
    outer loop
      vertex 93.9177 26.8267 102
      vertex 94.2063 26.7692 91.6
      vertex 93.9177 26.8267 91.6
    endloop
  endfacet
  facet normal -0.831318 0.555797 0
    outer loop
      vertex 96.285 27.6303 91.6
      vertex 96.4486 27.875 102
      vertex 96.4486 27.875 91.6
    endloop
  endfacet
  facet normal -0.831318 0.555797 0
    outer loop
      vertex 96.4486 27.875 102
      vertex 96.285 27.6303 91.6
      vertex 96.285 27.6303 102
    endloop
  endfacet
  facet normal -0.0652336 -0.99787 0
    outer loop
      vertex 94.5 31.25 91.6
      vertex 94.7937 31.2308 102
      vertex 94.5 31.25 102
    endloop
  endfacet
  facet normal -0.0652336 -0.99787 -0
    outer loop
      vertex 94.7937 31.2308 102
      vertex 94.5 31.25 91.6
      vertex 94.7937 31.2308 91.6
    endloop
  endfacet
  facet normal 0.99787 0.0652336 0
    outer loop
      vertex 92.2692 28.7063 102
      vertex 92.25 29 91.6
      vertex 92.25 29 102
    endloop
  endfacet
  facet normal 0.99787 0.0652336 0
    outer loop
      vertex 92.25 29 91.6
      vertex 92.2692 28.7063 102
      vertex 92.2692 28.7063 91.6
    endloop
  endfacet
  facet normal 0.99787 -0.0652336 0
    outer loop
      vertex 92.25 29 102
      vertex 92.2692 29.2937 91.6
      vertex 92.2692 29.2937 102
    endloop
  endfacet
  facet normal 0.99787 -0.0652336 0
    outer loop
      vertex 92.2692 29.2937 91.6
      vertex 92.25 29 102
      vertex 92.25 29 91.6
    endloop
  endfacet
  facet normal -0.195397 -0.980724 0
    outer loop
      vertex 94.7937 31.2308 91.6
      vertex 95.0823 31.1733 102
      vertex 94.7937 31.2308 102
    endloop
  endfacet
  facet normal -0.195397 -0.980724 -0
    outer loop
      vertex 95.0823 31.1733 102
      vertex 94.7937 31.2308 91.6
      vertex 95.0823 31.1733 91.6
    endloop
  endfacet
  facet normal 0.659202 -0.751966 0
    outer loop
      vertex 92.909 30.591 91.6
      vertex 93.1303 30.785 102
      vertex 92.909 30.591 102
    endloop
  endfacet
  facet normal 0.659202 -0.751966 0
    outer loop
      vertex 93.1303 30.785 102
      vertex 92.909 30.591 91.6
      vertex 93.1303 30.785 91.6
    endloop
  endfacet
endsolid OpenSCAD_Model
